<svg id="svg" version="1.1" xmlns="http://www.w3.org/2000/svg" xmlns:xlink="http://www.w3.org/1999/xlink" width="400" height="392.29671897289586" viewBox="0, 0, 400,392.29671897289586"><g id="svgg"><path id="path0" d="M135.083 12.299 C 72.658 12.434,21.556 12.568,21.522 12.597 C 21.344 12.752,22.413 13.482,24.527 14.649 C 24.925 14.869,25.482 15.225,25.766 15.441 C 26.049 15.657,26.332 15.833,26.394 15.833 C 26.456 15.833,26.824 16.037,27.212 16.285 C 27.982 16.779,28.429 17.043,29.527 17.649 C 29.925 17.869,30.482 18.225,30.766 18.441 C 31.049 18.657,31.332 18.833,31.394 18.833 C 31.456 18.833,31.824 19.037,32.212 19.285 C 32.599 19.534,33.116 19.853,33.360 19.994 C 33.604 20.135,34.192 20.475,34.667 20.750 C 35.141 21.025,35.729 21.365,35.973 21.506 C 36.217 21.647,36.734 21.966,37.122 22.215 C 37.509 22.463,37.877 22.667,37.939 22.667 C 38.001 22.667,38.284 22.843,38.568 23.059 C 38.851 23.275,39.409 23.631,39.806 23.851 C 40.904 24.457,41.352 24.721,42.122 25.215 C 42.509 25.463,42.871 25.667,42.924 25.667 C 42.978 25.667,43.261 25.846,43.553 26.064 C 43.845 26.283,44.383 26.625,44.750 26.825 C 45.117 27.025,45.717 27.370,46.083 27.591 C 46.450 27.812,46.919 28.082,47.125 28.190 C 47.331 28.298,47.500 28.450,47.500 28.527 C 47.500 28.604,47.618 28.667,47.761 28.667 C 47.905 28.667,48.261 28.846,48.553 29.064 C 48.845 29.283,49.383 29.625,49.750 29.825 C 50.117 30.025,50.717 30.370,51.083 30.591 C 51.450 30.812,51.919 31.082,52.125 31.190 C 52.331 31.298,52.500 31.450,52.500 31.527 C 52.500 31.604,52.618 31.667,52.761 31.667 C 52.905 31.667,53.261 31.846,53.553 32.064 C 53.845 32.283,54.383 32.625,54.750 32.825 C 55.117 33.025,55.717 33.369,56.083 33.588 C 56.450 33.808,57.050 34.151,57.417 34.351 C 57.783 34.551,58.315 34.891,58.599 35.107 C 58.883 35.323,59.172 35.500,59.242 35.500 C 59.311 35.500,59.702 35.725,60.109 36.000 C 60.517 36.275,60.889 36.500,60.937 36.500 C 60.984 36.500,61.350 36.725,61.750 37.000 C 62.150 37.275,62.547 37.500,62.633 37.500 C 62.718 37.500,62.969 37.642,63.189 37.815 C 63.409 37.988,63.962 38.338,64.417 38.592 C 64.872 38.846,65.345 39.155,65.468 39.277 C 65.590 39.400,65.765 39.500,65.857 39.500 C 65.948 39.500,66.350 39.725,66.750 40.000 C 67.150 40.275,67.531 40.500,67.598 40.500 C 67.664 40.500,67.951 40.677,68.234 40.893 C 68.518 41.109,69.075 41.465,69.473 41.684 C 70.571 42.291,71.018 42.554,71.788 43.048 C 72.176 43.297,72.544 43.500,72.606 43.500 C 72.668 43.500,72.951 43.677,73.234 43.893 C 73.518 44.109,74.075 44.465,74.473 44.684 C 75.571 45.291,76.018 45.554,76.788 46.048 C 77.176 46.297,77.537 46.500,77.591 46.500 C 77.645 46.500,77.935 46.688,78.235 46.917 C 78.536 47.146,78.832 47.333,78.894 47.333 C 78.956 47.333,79.324 47.537,79.712 47.785 C 80.482 48.279,80.929 48.543,82.027 49.149 C 82.425 49.369,82.982 49.725,83.266 49.941 C 83.549 50.157,83.832 50.333,83.894 50.333 C 83.956 50.333,84.324 50.537,84.712 50.785 C 85.482 51.279,85.929 51.543,87.027 52.149 C 87.425 52.369,87.982 52.725,88.266 52.941 C 88.549 53.157,88.832 53.333,88.894 53.333 C 88.956 53.333,89.324 53.537,89.712 53.785 C 90.504 54.294,90.980 54.573,92.027 55.144 C 92.425 55.361,92.862 55.635,93.000 55.753 C 93.138 55.871,93.624 56.174,94.081 56.427 C 94.538 56.680,95.012 56.988,95.134 57.111 C 95.257 57.233,95.422 57.333,95.501 57.333 C 95.648 57.333,97.060 58.144,97.866 58.691 C 98.113 58.859,98.675 59.196,99.116 59.440 C 99.556 59.684,99.954 59.935,100.000 59.997 C 100.046 60.059,100.308 60.226,100.583 60.368 C 101.103 60.636,102.570 61.480,103.634 62.122 C 103.973 62.326,104.419 62.582,104.625 62.690 C 104.831 62.798,105.000 62.950,105.000 63.027 C 105.000 63.104,105.105 63.167,105.233 63.167 C 105.362 63.167,105.843 63.410,106.303 63.708 C 106.763 64.006,107.458 64.438,107.849 64.667 C 108.240 64.896,108.929 65.327,109.380 65.625 C 109.831 65.923,110.273 66.167,110.361 66.167 C 110.450 66.167,110.761 66.345,111.053 66.564 C 111.345 66.782,111.846 67.092,112.167 67.254 C 112.487 67.415,112.787 67.597,112.833 67.659 C 112.879 67.721,113.356 68.030,113.893 68.344 C 114.431 68.659,115.143 69.080,115.477 69.281 C 115.810 69.481,116.383 69.810,116.750 70.013 C 117.117 70.216,117.649 70.558,117.932 70.774 C 118.216 70.990,118.499 71.167,118.561 71.167 C 118.623 71.167,118.991 71.370,119.378 71.619 C 120.171 72.127,120.646 72.406,121.694 72.978 C 122.091 73.195,122.529 73.468,122.667 73.586 C 122.885 73.773,123.839 74.331,124.919 74.905 C 125.104 75.003,125.479 75.242,125.752 75.437 C 126.026 75.631,126.550 75.955,126.917 76.156 C 127.283 76.357,127.883 76.703,128.250 76.924 C 128.617 77.146,129.085 77.415,129.292 77.523 C 129.498 77.632,129.667 77.783,129.667 77.860 C 129.667 77.937,129.784 78.000,129.928 78.000 C 130.071 78.000,130.428 78.179,130.719 78.398 C 131.011 78.616,131.550 78.959,131.917 79.159 C 132.283 79.359,132.883 79.703,133.250 79.924 C 133.617 80.146,134.085 80.415,134.292 80.523 C 134.498 80.632,134.667 80.783,134.667 80.860 C 134.667 80.937,134.784 81.000,134.928 81.000 C 135.071 81.000,135.428 81.179,135.719 81.398 C 136.011 81.616,136.550 81.959,136.917 82.159 C 137.283 82.359,137.883 82.703,138.250 82.924 C 138.617 83.146,139.085 83.415,139.292 83.523 C 139.498 83.632,139.667 83.783,139.667 83.860 C 139.667 83.937,139.784 84.000,139.928 84.000 C 140.071 84.000,140.428 84.179,140.719 84.397 C 141.011 84.615,141.512 84.926,141.833 85.087 C 142.154 85.248,142.454 85.434,142.500 85.500 C 142.546 85.566,142.846 85.752,143.167 85.913 C 143.487 86.074,143.989 86.385,144.281 86.603 C 144.572 86.821,144.904 87.000,145.017 87.000 C 145.131 87.000,145.342 87.105,145.487 87.233 C 145.632 87.362,146.124 87.674,146.581 87.927 C 147.038 88.180,147.512 88.488,147.634 88.611 C 147.757 88.733,147.932 88.833,148.024 88.833 C 148.115 88.833,148.517 89.058,148.917 89.333 C 149.316 89.608,149.714 89.833,149.799 89.833 C 149.885 89.833,150.135 89.975,150.356 90.148 C 150.576 90.322,151.129 90.672,151.584 90.926 C 152.039 91.180,152.512 91.488,152.634 91.611 C 152.757 91.733,152.932 91.833,153.024 91.833 C 153.115 91.833,153.517 92.058,153.917 92.333 C 154.316 92.608,154.714 92.833,154.799 92.833 C 154.885 92.833,155.135 92.975,155.356 93.148 C 155.576 93.322,156.129 93.672,156.584 93.926 C 157.039 94.180,157.512 94.488,157.634 94.611 C 157.757 94.733,157.932 94.833,158.024 94.833 C 158.115 94.833,158.517 95.058,158.917 95.333 C 159.316 95.608,159.718 95.833,159.809 95.833 C 159.900 95.833,160.186 96.011,160.446 96.227 C 160.705 96.444,161.242 96.800,161.639 97.019 C 162.722 97.615,163.179 97.884,163.955 98.381 C 164.343 98.630,164.704 98.833,164.758 98.833 C 164.812 98.833,165.094 99.012,165.386 99.231 C 165.678 99.450,166.217 99.792,166.583 99.992 C 166.950 100.192,167.550 100.535,167.917 100.755 C 168.283 100.975,168.883 101.318,169.250 101.518 C 169.617 101.718,170.149 102.058,170.432 102.274 C 170.716 102.490,170.999 102.667,171.061 102.667 C 171.123 102.667,171.491 102.870,171.878 103.119 C 172.648 103.612,173.096 103.876,174.194 104.482 C 174.591 104.702,175.149 105.058,175.432 105.274 C 175.716 105.490,176.005 105.667,176.075 105.667 C 176.145 105.667,176.535 105.892,176.943 106.167 C 177.350 106.442,177.722 106.667,177.770 106.667 C 177.818 106.667,178.184 106.892,178.583 107.167 C 178.983 107.442,179.380 107.667,179.466 107.667 C 179.552 107.667,179.802 107.808,180.022 107.982 C 180.243 108.155,180.795 108.505,181.251 108.759 C 181.706 109.013,182.178 109.321,182.301 109.444 C 182.424 109.566,182.599 109.667,182.690 109.667 C 182.782 109.667,183.184 109.892,183.583 110.167 C 183.983 110.442,184.380 110.667,184.466 110.667 C 184.552 110.667,184.802 110.808,185.022 110.982 C 185.243 111.155,185.795 111.505,186.251 111.759 C 186.706 112.013,187.178 112.321,187.301 112.444 C 187.424 112.566,187.599 112.667,187.690 112.667 C 187.782 112.667,188.184 112.892,188.583 113.167 C 188.983 113.442,189.376 113.667,189.456 113.667 C 189.536 113.667,189.860 113.858,190.176 114.091 C 190.492 114.325,191.069 114.676,191.458 114.871 C 191.848 115.066,192.167 115.287,192.167 115.363 C 192.167 115.438,192.284 115.500,192.428 115.500 C 192.571 115.500,192.928 115.679,193.219 115.897 C 193.511 116.115,194.005 116.423,194.318 116.581 C 194.630 116.739,194.967 116.941,195.068 117.029 C 195.224 117.166,196.206 117.765,197.208 118.334 C 197.369 118.425,197.631 118.575,197.792 118.666 C 198.782 119.228,199.775 119.833,199.927 119.966 C 200.639 120.590,201.214 120.631,201.901 120.107 C 202.185 119.891,202.722 119.559,203.094 119.370 C 203.467 119.180,203.870 118.906,203.990 118.762 C 204.110 118.618,204.348 118.500,204.520 118.500 C 204.693 118.500,204.833 118.444,204.834 118.375 C 204.834 118.306,205.227 118.033,205.709 117.768 C 206.190 117.502,206.696 117.191,206.833 117.076 C 206.971 116.961,207.458 116.660,207.917 116.408 C 208.375 116.156,208.787 115.897,208.833 115.834 C 208.879 115.770,209.113 115.613,209.353 115.484 C 211.036 114.580,211.463 114.326,211.817 114.017 C 212.037 113.824,212.286 113.667,212.370 113.667 C 212.455 113.667,212.850 113.442,213.250 113.167 C 213.650 112.892,214.031 112.667,214.098 112.667 C 214.164 112.667,214.451 112.490,214.734 112.274 C 215.018 112.058,215.555 111.726,215.928 111.536 C 216.301 111.346,216.704 111.073,216.823 110.929 C 216.943 110.785,217.142 110.667,217.266 110.667 C 217.472 110.667,217.834 110.446,219.777 109.135 C 220.159 108.877,220.523 108.667,220.586 108.667 C 220.650 108.667,221.035 108.442,221.443 108.167 C 221.850 107.892,222.213 107.667,222.250 107.667 C 222.287 107.667,222.650 107.442,223.057 107.167 C 223.465 106.892,223.855 106.667,223.925 106.667 C 223.995 106.667,224.284 106.494,224.568 106.282 C 224.851 106.071,225.450 105.677,225.898 105.407 C 226.346 105.138,226.984 104.753,227.315 104.553 C 227.646 104.353,228.217 104.024,228.583 103.822 C 228.950 103.620,229.462 103.277,229.721 103.061 C 229.980 102.844,230.267 102.667,230.358 102.667 C 230.449 102.667,230.850 102.442,231.250 102.167 C 231.650 101.892,232.024 101.667,232.083 101.667 C 232.141 101.667,232.435 101.479,232.735 101.250 C 233.036 101.021,233.339 100.833,233.408 100.833 C 233.478 100.833,233.868 100.608,234.276 100.333 C 234.683 100.058,235.083 99.833,235.163 99.833 C 235.244 99.833,235.410 99.733,235.532 99.611 C 235.655 99.488,236.129 99.179,236.586 98.925 C 237.043 98.670,237.454 98.411,237.500 98.348 C 237.546 98.285,238.033 97.983,238.583 97.677 C 239.133 97.372,239.621 97.075,239.667 97.019 C 239.756 96.910,240.272 96.607,241.530 95.928 C 241.959 95.696,242.358 95.428,242.417 95.333 C 242.475 95.238,242.875 94.975,243.303 94.748 C 243.732 94.521,244.354 94.166,244.685 93.960 C 245.016 93.753,245.653 93.366,246.102 93.100 C 246.550 92.835,247.096 92.497,247.315 92.350 C 247.534 92.203,247.834 92.008,247.982 91.917 C 248.129 91.825,248.573 91.544,248.967 91.292 C 249.361 91.040,249.741 90.833,249.812 90.833 C 249.883 90.833,250.235 90.610,250.595 90.338 C 250.955 90.066,251.318 89.841,251.401 89.838 C 251.484 89.835,251.784 89.659,252.068 89.445 C 252.351 89.232,252.977 88.838,253.458 88.570 C 253.939 88.302,254.333 88.027,254.333 87.958 C 254.333 87.890,254.472 87.833,254.641 87.833 C 254.810 87.833,255.082 87.685,255.246 87.504 C 255.410 87.323,255.703 87.125,255.897 87.065 C 256.091 87.004,256.587 86.722,257.000 86.437 C 257.840 85.857,258.390 85.528,259.530 84.921 C 259.959 84.693,260.358 84.428,260.417 84.333 C 260.475 84.238,260.875 83.972,261.303 83.742 C 261.732 83.512,262.458 83.090,262.917 82.805 C 263.375 82.520,264.087 82.099,264.500 81.868 C 264.912 81.638,265.287 81.402,265.333 81.345 C 265.472 81.170,267.513 80.000,267.679 80.000 C 267.764 80.000,267.833 79.937,267.833 79.860 C 267.833 79.783,268.227 79.508,268.708 79.250 C 269.190 78.992,269.808 78.624,270.082 78.432 C 270.850 77.895,272.359 77.000,272.497 77.000 C 272.565 77.000,272.904 76.775,273.250 76.500 C 273.596 76.225,273.953 76.000,274.042 76.000 C 274.132 76.000,274.572 75.731,275.019 75.402 C 275.467 75.074,275.836 74.868,275.839 74.944 C 275.843 75.021,276.038 74.858,276.274 74.583 C 276.510 74.308,276.645 74.196,276.573 74.333 C 276.472 74.527,276.515 74.520,276.763 74.304 C 276.939 74.150,277.158 74.000,277.250 73.970 C 277.342 73.941,277.399 73.865,277.378 73.801 C 277.357 73.738,277.601 73.592,277.920 73.476 C 278.239 73.361,278.500 73.198,278.500 73.115 C 278.500 73.032,278.629 73.014,278.787 73.074 C 278.944 73.135,279.019 73.130,278.952 73.063 C 278.792 72.903,279.682 72.323,279.890 72.452 C 279.979 72.507,280.003 72.473,279.944 72.378 C 279.839 72.208,280.420 71.933,280.750 71.996 C 280.842 72.013,280.861 71.972,280.793 71.904 C 280.725 71.836,280.818 71.675,281.001 71.547 C 281.331 71.316,281.333 71.094,281.333 41.767 L 281.333 12.221 276.056 12.110 C 273.154 12.050,265.785 12.012,259.681 12.027 C 253.577 12.042,197.508 12.165,135.083 12.299 M198.667 227.266 C 198.254 227.495,197.504 227.938,197.000 228.250 C 196.496 228.562,195.746 229.009,195.333 229.243 C 194.921 229.478,194.208 229.890,193.750 230.159 C 193.292 230.428,192.542 230.849,192.083 231.096 C 191.625 231.342,191.213 231.599,191.167 231.667 C 191.121 231.734,190.683 232.006,190.194 232.270 C 188.979 232.925,188.529 233.183,187.750 233.667 C 187.383 233.895,186.884 234.194,186.640 234.332 C 185.567 234.940,184.523 235.542,183.750 236.000 C 183.292 236.271,182.542 236.692,182.083 236.935 C 181.625 237.178,181.213 237.432,181.167 237.500 C 181.121 237.568,180.708 237.823,180.250 238.068 C 179.792 238.313,178.929 238.812,178.333 239.177 C 177.737 239.542,177.025 239.956,176.750 240.096 C 176.475 240.236,175.838 240.604,175.333 240.913 C 174.299 241.547,172.830 242.410,172.083 242.822 C 171.808 242.974,171.266 243.301,170.878 243.549 C 170.491 243.797,170.110 244.000,170.033 244.000 C 169.956 244.000,169.598 244.223,169.238 244.495 C 168.878 244.768,168.501 244.993,168.400 244.995 C 168.299 244.998,167.906 245.225,167.526 245.500 C 167.147 245.775,166.758 246.000,166.661 246.000 C 166.463 246.000,165.446 246.685,165.361 246.875 C 165.331 246.944,165.203 247.000,165.078 247.000 C 164.953 247.000,164.517 247.225,164.109 247.500 C 163.702 247.775,163.318 248.000,163.256 248.000 C 163.194 248.000,162.816 248.225,162.417 248.500 C 162.017 248.775,161.639 249.000,161.577 249.000 C 161.516 249.000,161.132 249.225,160.724 249.500 C 160.317 249.775,159.911 250.000,159.824 250.000 C 159.736 250.000,159.353 250.225,158.974 250.500 C 158.594 250.775,158.215 251.000,158.131 251.000 C 158.047 251.000,157.732 251.188,157.431 251.417 C 157.131 251.646,156.816 251.833,156.731 251.833 C 156.647 251.833,156.279 252.037,155.914 252.285 C 155.549 252.533,154.950 252.898,154.583 253.094 C 153.483 253.686,152.594 254.194,152.417 254.334 C 152.325 254.406,151.876 254.673,151.419 254.926 C 150.962 255.180,150.488 255.488,150.366 255.611 C 150.243 255.733,150.004 255.833,149.835 255.833 C 149.666 255.833,149.503 255.890,149.472 255.958 C 149.388 256.149,148.370 256.833,148.172 256.833 C 148.076 256.833,147.687 257.058,147.307 257.333 C 146.927 257.608,146.534 257.835,146.433 257.838 C 146.332 257.841,145.955 258.066,145.595 258.338 C 145.235 258.610,144.871 258.833,144.786 258.833 C 144.701 258.833,144.298 259.058,143.891 259.333 C 143.483 259.608,143.115 259.833,143.072 259.833 C 143.029 259.833,142.676 260.036,142.288 260.284 C 141.901 260.532,141.358 260.859,141.083 261.011 C 140.808 261.163,140.149 261.541,139.619 261.852 C 139.089 262.163,138.451 262.530,138.203 262.668 C 137.954 262.806,137.450 263.105,137.083 263.333 C 136.318 263.809,135.879 264.060,134.652 264.726 C 134.169 264.988,133.669 265.307,133.542 265.435 C 133.414 265.562,133.238 265.667,133.151 265.667 C 133.065 265.667,132.676 265.872,132.288 266.123 C 131.901 266.374,131.396 266.672,131.167 266.786 C 130.938 266.900,130.262 267.291,129.667 267.656 C 129.071 268.021,128.246 268.511,127.833 268.745 C 126.657 269.411,126.134 269.719,125.417 270.166 C 125.050 270.394,124.551 270.694,124.307 270.832 C 122.684 271.752,121.739 272.286,121.312 272.524 C 121.042 272.674,120.525 272.993,120.164 273.232 C 119.803 273.471,119.436 273.667,119.349 273.667 C 119.262 273.667,119.086 273.771,118.958 273.899 C 118.831 274.026,118.357 274.330,117.905 274.573 C 116.574 275.289,115.103 276.174,114.820 276.429 C 114.675 276.560,114.436 276.667,114.288 276.667 C 114.141 276.667,113.972 276.743,113.914 276.837 C 113.856 276.931,113.383 277.234,112.863 277.512 C 112.342 277.789,111.504 278.273,111.000 278.588 C 110.496 278.902,109.896 279.258,109.667 279.378 C 109.438 279.498,108.950 279.781,108.583 280.006 C 107.857 280.453,107.410 280.709,106.306 281.311 C 105.909 281.527,105.345 281.884,105.053 282.102 C 104.761 282.321,104.439 282.500,104.338 282.500 C 104.132 282.500,103.115 283.180,103.028 283.375 C 102.997 283.444,102.834 283.500,102.665 283.500 C 102.496 283.500,102.248 283.609,102.115 283.743 C 101.981 283.876,101.544 284.153,101.144 284.358 C 100.744 284.563,100.185 284.903,99.901 285.115 C 99.617 285.327,99.328 285.500,99.258 285.500 C 99.189 285.500,98.798 285.725,98.391 286.000 C 97.983 286.275,97.582 286.500,97.500 286.500 C 97.418 286.500,97.017 286.725,96.609 287.000 C 96.202 287.275,95.818 287.500,95.756 287.500 C 95.694 287.500,95.316 287.725,94.917 288.000 C 94.517 288.275,94.128 288.502,94.053 288.505 C 93.978 288.507,93.622 288.732,93.262 289.005 C 92.902 289.277,92.538 289.500,92.453 289.500 C 92.368 289.500,91.965 289.725,91.557 290.000 C 91.150 290.275,90.740 290.500,90.647 290.500 C 90.554 290.500,90.232 290.688,89.931 290.917 C 89.631 291.146,89.328 291.333,89.258 291.333 C 89.189 291.333,88.798 291.558,88.391 291.833 C 87.983 292.108,87.541 292.333,87.408 292.333 C 87.275 292.333,87.167 292.399,87.167 292.480 C 87.167 292.560,86.942 292.719,86.667 292.833 C 86.392 292.947,86.167 293.106,86.167 293.187 C 86.167 293.267,86.058 293.333,85.925 293.333 C 85.792 293.333,85.350 293.558,84.943 293.833 C 84.535 294.108,84.138 294.335,84.059 294.338 C 83.981 294.341,83.622 294.566,83.262 294.838 C 82.902 295.110,82.538 295.333,82.453 295.333 C 82.368 295.333,81.965 295.558,81.557 295.833 C 81.150 296.108,80.733 296.333,80.630 296.333 C 80.527 296.333,80.325 296.440,80.180 296.571 C 79.897 296.826,78.426 297.711,77.095 298.427 C 76.643 298.670,76.169 298.974,76.042 299.101 C 75.914 299.229,75.738 299.333,75.651 299.333 C 75.565 299.333,75.176 299.537,74.788 299.785 C 73.943 300.328,73.481 300.596,72.306 301.230 C 71.817 301.494,71.379 301.766,71.333 301.833 C 71.287 301.901,70.875 302.158,70.417 302.404 C 68.634 303.362,67.932 303.786,67.888 303.932 C 67.841 304.086,69.415 305.167,69.687 305.167 C 69.769 305.167,70.147 305.392,70.526 305.667 C 70.906 305.942,71.286 306.167,71.370 306.167 C 71.454 306.167,71.850 306.392,72.250 306.667 C 72.650 306.942,73.027 307.167,73.089 307.167 C 73.151 307.167,73.535 307.392,73.943 307.667 C 74.350 307.942,74.751 308.167,74.833 308.167 C 74.916 308.167,75.317 308.392,75.724 308.667 C 76.132 308.942,76.543 309.167,76.637 309.167 C 76.732 309.167,76.914 309.271,77.042 309.399 C 77.169 309.526,77.681 309.836,78.179 310.087 C 78.676 310.338,79.121 310.599,79.167 310.667 C 79.212 310.734,79.650 311.006,80.140 311.270 C 81.307 311.900,81.778 312.167,82.583 312.655 C 83.277 313.075,83.691 313.310,85.079 314.074 C 85.534 314.325,86.108 314.673,86.354 314.848 C 86.600 315.023,86.854 315.167,86.918 315.167 C 86.982 315.167,87.368 315.392,87.776 315.667 C 88.183 315.942,88.610 316.167,88.725 316.167 C 88.840 316.167,89.026 316.260,89.140 316.375 C 89.337 316.573,90.240 317.102,92.071 318.092 C 92.523 318.336,92.997 318.640,93.125 318.768 C 93.253 318.896,93.496 319.000,93.665 319.000 C 93.834 319.000,93.997 319.056,94.028 319.125 C 94.110 319.310,95.127 320.000,95.318 320.000 C 95.409 320.000,95.817 320.225,96.224 320.500 C 96.632 320.775,97.018 321.000,97.082 321.000 C 97.146 321.000,97.400 321.143,97.646 321.318 C 97.892 321.494,98.466 321.842,98.921 322.093 C 100.309 322.856,100.723 323.091,101.417 323.512 C 101.783 323.734,102.283 324.029,102.526 324.166 C 102.770 324.304,103.433 324.679,104.000 325.000 C 104.567 325.321,105.230 325.696,105.474 325.834 C 105.717 325.971,106.217 326.266,106.583 326.488 C 107.231 326.881,107.756 327.181,108.875 327.799 C 109.173 327.964,109.734 328.301,110.122 328.549 C 110.509 328.797,110.873 329.000,110.929 329.000 C 110.986 329.000,111.233 329.143,111.479 329.318 C 111.725 329.494,112.299 329.841,112.755 330.091 C 113.210 330.341,113.883 330.720,114.250 330.935 C 114.878 331.301,115.394 331.593,117.701 332.884 C 118.225 333.177,118.746 333.510,118.860 333.625 C 118.974 333.740,119.160 333.833,119.275 333.833 C 119.390 333.833,119.817 334.058,120.224 334.333 C 120.632 334.608,121.018 334.833,121.082 334.833 C 121.146 334.833,121.400 334.977,121.646 335.152 C 122.053 335.442,122.810 335.877,124.299 336.677 C 124.601 336.839,124.939 337.043,125.049 337.130 C 125.160 337.217,125.625 337.499,126.083 337.757 C 127.002 338.273,128.023 338.865,129.667 339.835 C 130.262 340.186,131.125 340.673,131.583 340.917 C 132.042 341.160,132.535 341.466,132.680 341.596 C 132.825 341.727,133.027 341.833,133.130 341.833 C 133.233 341.833,133.650 342.058,134.057 342.333 C 134.465 342.608,134.851 342.833,134.915 342.833 C 134.979 342.833,135.233 342.977,135.479 343.152 C 135.725 343.327,136.299 343.674,136.755 343.924 C 137.210 344.174,137.883 344.554,138.250 344.768 C 138.617 344.982,139.329 345.389,139.833 345.672 C 140.337 345.955,141.078 346.372,141.479 346.598 C 141.880 346.824,142.397 347.157,142.627 347.338 C 142.857 347.519,143.118 347.667,143.207 347.667 C 143.296 347.667,143.702 347.892,144.109 348.167 C 144.517 348.442,144.934 348.667,145.037 348.667 C 145.140 348.667,145.342 348.773,145.487 348.904 C 145.632 349.034,146.125 349.338,146.583 349.580 C 147.042 349.822,147.904 350.316,148.500 350.678 C 149.096 351.041,149.771 351.427,150.000 351.536 C 150.229 351.646,150.717 351.930,151.083 352.167 C 151.450 352.404,151.938 352.692,152.167 352.806 C 152.396 352.921,153.071 353.305,153.667 353.661 C 154.262 354.016,155.111 354.500,155.552 354.735 C 155.993 354.970,156.467 355.276,156.605 355.415 C 156.744 355.553,157.002 355.667,157.179 355.667 C 157.355 355.667,157.500 355.733,157.500 355.813 C 157.500 355.894,157.725 356.053,158.000 356.167 C 158.275 356.281,158.500 356.440,158.500 356.520 C 158.500 356.601,158.625 356.667,158.779 356.667 C 158.932 356.667,159.175 356.773,159.320 356.904 C 159.465 357.034,159.981 357.353,160.467 357.612 C 161.837 358.343,162.275 358.590,162.745 358.898 C 162.985 359.055,163.515 359.367,163.924 359.592 C 164.332 359.816,165.017 360.192,165.446 360.427 C 165.874 360.663,166.409 361.000,166.635 361.177 C 166.860 361.355,167.118 361.500,167.207 361.500 C 167.296 361.500,167.702 361.725,168.109 362.000 C 168.517 362.275,168.959 362.500,169.092 362.500 C 169.225 362.500,169.333 362.566,169.333 362.646 C 169.333 362.727,169.558 362.886,169.833 363.000 C 170.108 363.114,170.333 363.273,170.333 363.354 C 170.333 363.434,170.478 363.500,170.655 363.500 C 170.832 363.500,171.081 363.604,171.208 363.732 C 171.336 363.860,171.810 364.164,172.262 364.409 C 172.714 364.653,173.571 365.144,174.167 365.499 C 174.762 365.854,175.512 366.289,175.833 366.464 C 176.154 366.639,176.904 367.068,177.500 367.417 C 178.096 367.765,178.915 368.231,179.321 368.453 C 179.726 368.674,180.243 369.000,180.468 369.177 C 180.694 369.355,180.951 369.500,181.040 369.500 C 181.129 369.500,181.535 369.725,181.943 370.000 C 182.350 370.275,182.792 370.500,182.925 370.500 C 183.058 370.500,183.167 370.559,183.167 370.632 C 183.167 370.704,183.598 370.980,184.125 371.244 C 184.652 371.509,185.121 371.777,185.167 371.841 C 185.213 371.904,185.625 372.158,186.083 372.404 C 187.863 373.361,188.828 373.925,189.026 374.125 C 189.140 374.240,189.331 374.333,189.451 374.333 C 189.571 374.333,189.980 374.558,190.360 374.833 C 190.739 375.108,191.119 375.333,191.203 375.333 C 191.288 375.333,191.684 375.558,192.083 375.833 C 192.483 376.108,192.861 376.333,192.923 376.333 C 192.984 376.333,193.368 376.558,193.776 376.833 C 194.183 377.108,194.584 377.333,194.667 377.333 C 194.749 377.333,195.150 377.558,195.557 377.833 C 195.965 378.108,196.376 378.333,196.471 378.333 C 196.565 378.333,196.747 378.438,196.875 378.565 C 197.003 378.693,197.514 379.003,198.012 379.254 C 198.509 379.505,198.954 379.764,199.000 379.830 C 199.423 380.438,200.203 380.439,201.083 379.833 C 201.483 379.558,201.861 379.333,201.923 379.333 C 201.984 379.333,202.368 379.108,202.776 378.833 C 203.183 378.558,203.591 378.333,203.682 378.333 C 203.873 378.333,204.890 377.644,204.972 377.458 C 205.003 377.390,205.147 377.333,205.292 377.333 C 205.438 377.333,205.675 377.227,205.820 377.096 C 205.965 376.966,206.458 376.662,206.917 376.420 C 207.375 376.178,208.237 375.684,208.833 375.322 C 209.429 374.959,210.104 374.573,210.333 374.462 C 210.563 374.351,211.028 374.081,211.369 373.862 C 212.014 373.447,212.385 373.234,213.848 372.440 C 214.331 372.178,214.831 371.860,214.958 371.732 C 215.086 371.604,215.329 371.500,215.498 371.500 C 215.667 371.500,215.831 371.444,215.861 371.375 C 215.944 371.190,216.960 370.500,217.152 370.500 C 217.242 370.500,217.650 370.275,218.057 370.000 C 218.465 369.725,218.849 369.500,218.911 369.500 C 218.973 369.500,219.350 369.275,219.750 369.000 C 220.150 368.725,220.540 368.500,220.616 368.500 C 220.693 368.500,221.055 368.297,221.420 368.048 C 222.025 367.636,222.390 367.426,224.167 366.465 C 224.487 366.291,225.162 365.894,225.667 365.582 C 226.481 365.079,227.458 364.514,229.021 363.643 C 229.292 363.492,229.791 363.190,230.131 362.971 C 230.472 362.752,230.938 362.478,231.167 362.362 C 231.396 362.247,232.071 361.860,232.667 361.503 C 233.262 361.145,234.176 360.625,234.696 360.347 C 235.217 360.069,235.690 359.764,235.748 359.670 C 235.806 359.577,235.999 359.500,236.177 359.500 C 236.354 359.500,236.500 359.442,236.500 359.372 C 236.500 359.301,236.855 359.057,237.288 358.830 C 237.721 358.603,238.370 358.210,238.730 357.958 C 239.089 357.706,239.449 357.500,239.528 357.500 C 239.608 357.500,239.991 357.297,240.378 357.049 C 240.766 356.802,241.188 356.582,241.317 356.560 C 241.445 356.539,241.595 356.455,241.650 356.374 C 241.705 356.292,242.012 356.083,242.333 355.909 C 242.654 355.735,243.304 355.347,243.778 355.047 C 244.252 354.746,244.698 354.500,244.769 354.500 C 244.840 354.500,245.165 354.323,245.491 354.108 C 246.625 353.357,249.692 351.569,251.499 350.607 C 251.991 350.345,252.497 350.026,252.625 349.899 C 252.753 349.771,253.002 349.667,253.179 349.667 C 253.355 349.667,253.500 349.610,253.501 349.542 C 253.502 349.406,254.310 348.890,255.044 348.557 C 255.298 348.441,255.549 348.232,255.603 348.091 C 255.657 347.950,255.769 347.877,255.852 347.928 C 255.935 347.979,256.120 347.904,256.263 347.761 C 256.407 347.617,256.635 347.500,256.772 347.500 C 256.919 347.500,256.971 347.421,256.899 347.305 C 256.817 347.173,256.871 347.145,257.065 347.220 C 257.222 347.280,257.310 347.264,257.261 347.184 C 257.180 347.053,257.502 346.886,258.386 346.600 C 258.552 346.546,258.642 346.428,258.585 346.336 C 258.524 346.237,258.598 346.215,258.769 346.280 C 258.979 346.361,259.018 346.331,258.917 346.167 C 258.815 346.002,258.854 345.972,259.065 346.053 C 259.222 346.113,259.310 346.097,259.260 346.016 C 259.210 345.935,259.280 345.825,259.417 345.773 C 259.852 345.606,259.872 261.907,259.436 261.874 C 259.264 261.861,258.683 261.542,258.145 261.165 C 257.607 260.787,257.164 260.540,257.161 260.614 C 257.158 260.689,257.046 260.604,256.911 260.426 C 256.777 260.249,256.667 260.169,256.667 260.250 C 256.667 260.331,256.573 260.274,256.458 260.124 C 256.344 259.974,256.140 259.829,256.007 259.801 C 255.873 259.773,255.610 259.615,255.424 259.450 C 255.238 259.284,254.485 258.814,253.751 258.405 C 253.017 257.995,251.929 257.364,251.333 257.003 C 250.737 256.642,249.838 256.118,249.333 255.839 C 248.829 255.559,248.268 255.238,248.087 255.124 C 246.912 254.385,245.982 253.833,245.910 253.833 C 245.864 253.833,245.531 253.638,245.169 253.399 C 244.495 252.952,244.160 252.760,242.635 251.945 C 242.150 251.686,241.715 251.414,241.668 251.342 C 241.622 251.270,241.208 251.012,240.750 250.769 C 240.292 250.526,239.542 250.105,239.083 249.833 C 238.214 249.319,236.979 248.608,236.155 248.148 C 234.893 247.443,232.038 245.762,231.662 245.502 C 231.430 245.342,230.909 245.042,230.505 244.836 C 230.101 244.630,229.667 244.358,229.540 244.231 C 229.413 244.104,229.244 244.000,229.164 244.000 C 229.020 244.000,225.789 242.135,224.667 241.404 C 224.346 241.195,223.802 240.893,223.458 240.731 C 223.115 240.570,222.833 240.377,222.833 240.302 C 222.833 240.228,222.761 240.167,222.672 240.167 C 222.583 240.167,221.852 239.786,221.047 239.322 C 219.563 238.465,219.454 238.401,218.256 237.676 C 217.886 237.452,217.283 237.107,216.917 236.908 C 215.647 236.221,214.915 235.793,214.474 235.480 C 214.231 235.308,213.979 235.167,213.915 235.167 C 213.851 235.167,213.465 234.942,213.057 234.667 C 212.650 234.392,212.208 234.167,212.075 234.167 C 211.942 234.167,211.833 234.101,211.833 234.020 C 211.833 233.940,211.608 233.781,211.333 233.667 C 211.058 233.553,210.833 233.394,210.833 233.313 C 210.833 233.233,210.725 233.167,210.592 233.167 C 210.459 233.167,210.017 232.942,209.609 232.667 C 209.202 232.392,208.818 232.167,208.756 232.167 C 208.694 232.167,208.316 231.942,207.917 231.667 C 207.517 231.392,207.139 231.167,207.077 231.167 C 207.016 231.167,206.632 230.942,206.224 230.667 C 205.817 230.392,205.375 230.167,205.242 230.167 C 205.109 230.167,205.000 230.101,205.000 230.020 C 205.000 229.940,204.775 229.781,204.500 229.667 C 204.225 229.553,204.000 229.394,204.000 229.313 C 204.000 229.233,203.891 229.167,203.758 229.167 C 203.625 229.167,203.183 228.942,202.776 228.667 C 202.368 228.392,201.982 228.167,201.918 228.167 C 201.854 228.167,201.602 228.025,201.359 227.853 C 199.835 226.771,199.634 226.728,198.667 227.266 " stroke="none" fill="#dfc660" fill-rule="evenodd"></path><path id="path1" d="M299.833 12.000 C 285.762 12.047,275.844 12.103,277.792 12.126 L 281.333 12.167 281.335 41.708 L 281.336 71.250 280.793 71.704 C 280.494 71.953,280.344 72.160,280.458 72.162 C 280.573 72.165,280.667 72.092,280.667 72.000 C 280.667 71.908,280.745 71.833,280.840 71.833 C 280.936 71.833,281.105 71.757,281.215 71.663 C 281.547 71.383,283.503 70.167,283.622 70.167 C 283.776 70.167,285.071 69.277,285.139 69.125 C 285.169 69.056,285.329 69.000,285.493 69.000 C 285.658 69.000,285.891 68.882,286.011 68.737 C 286.131 68.592,286.571 68.293,286.990 68.072 C 287.408 67.850,288.019 67.500,288.348 67.293 C 288.677 67.086,289.352 66.678,289.848 66.386 C 290.344 66.094,290.840 65.776,290.950 65.679 C 291.059 65.582,291.509 65.305,291.950 65.063 C 292.390 64.821,292.868 64.521,293.013 64.395 C 293.158 64.269,293.359 64.167,293.460 64.167 C 293.560 64.167,293.743 64.066,293.866 63.944 C 293.988 63.821,294.461 63.513,294.916 63.259 C 295.371 63.005,295.924 62.655,296.144 62.482 C 296.365 62.308,296.613 62.167,296.696 62.167 C 296.876 62.167,297.893 61.470,297.972 61.292 C 298.003 61.223,298.162 61.167,298.327 61.167 C 298.491 61.167,298.724 61.048,298.844 60.904 C 298.964 60.759,299.405 60.460,299.823 60.238 C 300.241 60.017,300.854 59.666,301.185 59.460 C 301.516 59.253,302.153 58.866,302.602 58.600 C 303.050 58.335,303.596 57.997,303.815 57.850 C 304.034 57.703,304.334 57.508,304.482 57.417 C 304.629 57.325,305.073 57.044,305.467 56.792 C 305.861 56.540,306.241 56.333,306.312 56.333 C 306.383 56.333,306.735 56.110,307.095 55.838 C 307.455 55.566,307.825 55.338,307.917 55.333 C 308.008 55.328,308.378 55.101,308.738 54.829 C 309.098 54.556,309.457 54.333,309.536 54.333 C 309.712 54.333,310.728 53.632,310.806 53.458 C 310.836 53.390,310.975 53.333,311.115 53.333 C 311.254 53.333,311.577 53.165,311.832 52.958 C 312.087 52.752,312.660 52.377,313.106 52.126 C 313.982 51.631,314.211 51.490,315.277 50.792 C 315.662 50.540,316.051 50.333,316.142 50.333 C 316.233 50.333,316.520 50.156,316.779 49.939 C 317.038 49.723,317.550 49.380,317.917 49.178 C 318.283 48.976,318.853 48.647,319.182 48.447 C 319.511 48.247,320.186 47.843,320.682 47.550 C 321.178 47.257,321.730 46.900,321.909 46.758 C 322.088 46.616,322.290 46.500,322.359 46.500 C 322.427 46.500,322.806 46.294,323.200 46.042 C 323.594 45.790,324.037 45.508,324.185 45.417 C 324.333 45.325,324.633 45.130,324.852 44.983 C 325.071 44.836,325.587 44.516,326.000 44.272 C 326.941 43.715,327.239 43.529,328.111 42.958 C 328.495 42.706,328.885 42.500,328.976 42.500 C 329.067 42.500,329.353 42.323,329.612 42.106 C 329.871 41.889,330.383 41.547,330.750 41.345 C 331.117 41.143,331.686 40.814,332.015 40.614 C 332.344 40.414,333.019 40.011,333.515 39.719 C 334.011 39.427,334.507 39.109,334.616 39.013 C 334.726 38.916,335.176 38.639,335.616 38.397 C 336.057 38.155,336.535 37.854,336.680 37.728 C 336.825 37.603,337.025 37.500,337.126 37.500 C 337.227 37.500,337.410 37.400,337.532 37.277 C 337.655 37.155,338.129 36.847,338.586 36.594 C 339.043 36.341,339.529 36.039,339.667 35.924 C 339.804 35.809,340.310 35.498,340.791 35.232 C 341.273 34.967,341.666 34.694,341.666 34.625 C 341.667 34.556,341.807 34.500,341.980 34.500 C 342.152 34.500,342.391 34.382,342.511 34.237 C 342.631 34.092,343.071 33.787,343.490 33.560 C 343.908 33.332,344.519 32.981,344.848 32.781 C 345.177 32.581,345.852 32.178,346.348 31.886 C 346.844 31.594,347.340 31.276,347.450 31.179 C 347.559 31.082,348.009 30.805,348.450 30.563 C 348.890 30.321,349.368 30.021,349.513 29.895 C 349.658 29.769,349.859 29.667,349.960 29.667 C 350.060 29.667,350.243 29.566,350.366 29.444 C 350.488 29.321,350.962 29.014,351.419 28.761 C 351.876 28.507,352.363 28.206,352.500 28.091 C 352.637 27.976,353.144 27.665,353.625 27.399 C 354.106 27.134,354.500 26.860,354.500 26.792 C 354.500 26.723,354.646 26.667,354.823 26.667 C 355.001 26.667,355.193 26.593,355.248 26.503 C 355.304 26.412,355.852 26.036,356.467 25.666 C 357.866 24.824,358.082 24.690,358.944 24.125 C 359.329 23.873,359.718 23.667,359.810 23.667 C 359.901 23.667,360.080 23.563,360.207 23.435 C 360.418 23.225,361.644 22.465,362.795 21.833 C 363.045 21.695,363.512 21.395,363.833 21.167 C 364.154 20.938,364.620 20.638,364.868 20.500 C 366.475 19.608,367.333 19.073,367.333 18.962 C 367.333 18.891,367.479 18.833,367.657 18.833 C 367.835 18.833,368.026 18.759,368.082 18.669 C 368.138 18.579,368.686 18.203,369.300 17.833 C 370.530 17.093,370.766 16.948,371.747 16.326 C 372.115 16.093,372.604 15.809,372.833 15.695 C 373.063 15.582,373.700 15.191,374.250 14.827 C 374.800 14.463,375.438 14.075,375.667 13.965 C 375.896 13.855,376.357 13.555,376.691 13.299 C 377.025 13.043,377.371 12.833,377.460 12.833 C 377.689 12.833,378.500 12.174,378.500 11.988 C 378.500 11.831,349.515 11.835,299.833 12.000 M279.175 72.680 C 278.767 72.947,278.504 73.166,278.592 73.166 C 278.679 73.166,279.087 72.941,279.500 72.667 C 279.912 72.392,280.175 72.174,280.083 72.180 C 279.992 72.187,279.583 72.412,279.175 72.680 M277.666 73.591 C 277.425 73.725,277.355 73.823,277.500 73.825 C 277.798 73.829,278.274 73.551,278.162 73.439 C 278.118 73.396,277.895 73.464,277.666 73.591 M257.833 260.894 C 257.833 261.023,259.177 261.878,259.256 261.799 C 259.302 261.753,259.040 261.517,258.674 261.274 C 258.037 260.853,257.833 260.761,257.833 260.894 M259.626 303.766 L 259.668 345.655 259.209 345.904 C 258.957 346.041,258.829 346.156,258.926 346.160 C 259.024 346.164,259.249 346.057,259.426 345.922 C 259.604 345.787,259.847 345.675,259.965 345.672 C 260.196 345.666,261.214 344.998,261.306 344.792 C 261.336 344.723,261.500 344.667,261.669 344.667 C 261.838 344.667,262.081 344.562,262.208 344.435 C 262.336 344.307,262.835 343.988,263.318 343.726 C 264.542 343.063,264.983 342.811,265.750 342.340 C 266.117 342.114,266.604 341.835,266.833 341.718 C 267.063 341.602,267.737 341.210,268.333 340.847 C 268.929 340.484,269.792 339.989,270.250 339.747 C 270.708 339.505,271.202 339.200,271.346 339.070 C 271.491 338.940,271.694 338.833,271.796 338.833 C 271.899 338.833,272.317 338.608,272.724 338.333 C 273.132 338.058,273.516 337.833,273.577 337.833 C 273.639 337.833,274.017 337.608,274.417 337.333 C 274.816 337.058,275.214 336.833,275.299 336.833 C 275.385 336.833,275.640 336.688,275.865 336.511 C 276.091 336.333,276.645 335.985,277.096 335.737 C 278.480 334.975,278.891 334.741,279.583 334.321 C 279.950 334.099,280.449 333.805,280.693 333.667 C 282.519 332.636,283.188 332.254,283.917 331.826 C 284.992 331.194,286.060 330.585,287.000 330.065 C 287.412 329.837,287.938 329.520,288.167 329.362 C 288.396 329.203,288.940 328.888,289.375 328.662 C 289.810 328.436,290.167 328.194,290.167 328.125 C 290.167 328.056,290.275 328.000,290.408 328.000 C 290.541 328.000,290.983 327.775,291.391 327.500 C 291.798 327.225,292.204 327.000,292.293 327.000 C 292.382 327.000,292.640 326.855,292.865 326.677 C 293.091 326.500,293.645 326.152,294.096 325.903 C 295.480 325.141,295.891 324.908,296.583 324.488 C 297.389 324.000,297.860 323.733,299.027 323.103 C 299.516 322.839,299.954 322.568,300.000 322.500 C 300.046 322.432,300.484 322.161,300.973 321.897 C 302.407 321.123,302.810 320.893,303.465 320.471 C 303.805 320.252,304.271 319.982,304.500 319.871 C 304.729 319.761,305.404 319.373,306.000 319.010 C 306.596 318.647,307.477 318.147,307.958 317.898 C 308.440 317.649,308.833 317.383,308.833 317.306 C 308.833 317.229,308.978 317.167,309.155 317.167 C 309.332 317.167,309.590 317.053,309.728 316.915 C 309.866 316.776,310.341 316.472,310.782 316.238 C 311.223 316.004,312.071 315.517,312.667 315.155 C 313.262 314.793,313.938 314.407,314.167 314.297 C 314.396 314.187,314.883 313.904,315.250 313.667 C 315.617 313.430,316.104 313.142,316.333 313.027 C 316.563 312.913,317.237 312.527,317.833 312.169 C 318.429 311.812,319.329 311.289,319.833 311.007 C 320.337 310.725,321.125 310.272,321.583 310.000 C 322.491 309.463,323.508 308.876,324.646 308.235 C 325.047 308.009,325.563 307.676,325.793 307.496 C 326.023 307.315,326.284 307.167,326.373 307.167 C 326.462 307.167,326.868 306.942,327.276 306.667 C 327.683 306.392,328.084 306.167,328.167 306.167 C 328.249 306.167,328.650 305.942,329.057 305.667 C 329.465 305.392,329.857 305.167,329.929 305.167 C 330.193 305.167,331.656 304.078,331.609 303.917 C 331.582 303.825,331.191 303.549,330.739 303.303 C 330.287 303.057,329.770 302.738,329.591 302.595 C 329.412 302.451,329.204 302.333,329.129 302.333 C 329.055 302.333,328.676 302.128,328.288 301.877 C 327.901 301.626,327.396 301.328,327.167 301.214 C 326.938 301.100,326.262 300.709,325.667 300.344 C 325.071 299.979,324.214 299.482,323.762 299.239 C 323.310 298.996,322.836 298.693,322.708 298.565 C 322.581 298.438,322.411 298.333,322.331 298.333 C 322.181 298.333,318.869 296.417,317.824 295.725 C 317.499 295.510,317.184 295.333,317.125 295.333 C 317.007 295.333,313.489 293.287,312.828 292.834 C 312.596 292.674,312.071 292.374,311.662 292.166 C 311.252 291.959,310.879 291.741,310.833 291.683 C 310.787 291.624,310.563 291.487,310.333 291.378 C 309.698 291.074,308.137 290.168,307.641 289.815 C 307.398 289.642,307.146 289.500,307.082 289.500 C 307.018 289.500,306.632 289.275,306.224 289.000 C 305.817 288.725,305.375 288.500,305.242 288.500 C 305.109 288.500,305.000 288.444,305.000 288.375 C 305.000 288.306,304.644 288.063,304.208 287.835 C 303.773 287.607,303.106 287.213,302.726 286.960 C 302.346 286.707,301.984 286.500,301.923 286.500 C 301.861 286.500,301.483 286.275,301.083 286.000 C 300.684 285.725,300.306 285.500,300.244 285.500 C 300.182 285.500,299.798 285.275,299.391 285.000 C 298.983 284.725,298.582 284.500,298.500 284.500 C 298.418 284.500,298.017 284.275,297.609 284.000 C 297.202 283.725,296.818 283.500,296.756 283.500 C 296.694 283.500,296.316 283.275,295.917 283.000 C 295.517 282.725,295.139 282.500,295.077 282.500 C 295.016 282.500,294.632 282.275,294.224 282.000 C 293.817 281.725,293.375 281.500,293.242 281.500 C 293.109 281.500,293.000 281.434,293.000 281.354 C 293.000 281.273,292.775 281.114,292.500 281.000 C 292.225 280.886,292.000 280.727,292.000 280.646 C 292.000 280.566,291.884 280.500,291.743 280.500 C 291.602 280.500,291.283 280.362,291.035 280.193 C 290.171 279.606,288.045 278.360,286.917 277.778 C 286.550 277.589,286.212 277.384,286.167 277.323 C 286.121 277.261,285.708 277.010,285.250 276.765 C 284.792 276.520,283.929 276.022,283.333 275.658 C 282.737 275.294,282.063 274.908,281.833 274.799 C 281.604 274.691,281.304 274.510,281.167 274.398 C 281.029 274.285,280.542 273.995,280.083 273.753 C 279.625 273.511,278.762 273.016,278.167 272.653 C 277.571 272.290,276.896 271.900,276.667 271.786 C 276.295 271.602,275.538 271.152,274.577 270.543 C 274.397 270.429,273.837 270.107,273.333 269.828 C 272.829 269.548,271.929 269.022,271.333 268.659 C 270.737 268.296,270.080 267.925,269.873 267.836 C 269.413 267.638,268.438 266.964,268.361 266.792 C 268.331 266.723,268.167 266.667,267.998 266.667 C 267.829 266.667,267.591 266.573,267.470 266.458 C 267.349 266.344,266.912 266.068,266.500 265.846 C 266.087 265.624,265.506 265.258,265.208 265.034 C 264.910 264.810,264.667 264.675,264.667 264.733 C 264.667 264.791,264.370 264.641,264.006 264.401 C 263.311 263.941,262.923 263.717,261.473 262.939 C 260.984 262.677,260.471 262.369,260.333 262.256 C 259.533 261.598,259.580 258.802,259.626 303.766 M257.333 347.000 C 257.012 347.176,256.810 347.323,256.883 347.326 C 257.060 347.336,258.000 346.847,258.000 346.746 C 258.000 346.637,257.990 346.640,257.333 347.000 " stroke="none" fill="#dfc660" fill-rule="evenodd"></path><path id="path2" d="M45.933 60.750 C 45.595 60.979,45.266 61.167,45.201 61.168 C 45.070 61.169,44.785 61.314,43.083 62.250 C 41.082 63.350,38.622 64.643,37.667 65.097 C 37.162 65.336,36.712 65.588,36.667 65.657 C 36.621 65.725,36.133 66.002,35.583 66.272 C 34.025 67.037,30.994 68.652,30.608 68.923 C 30.416 69.057,30.132 69.167,29.977 69.167 C 29.822 69.167,29.669 69.225,29.639 69.297 C 29.570 69.458,28.370 70.167,28.165 70.167 C 28.084 70.167,27.683 70.392,27.276 70.667 C 26.868 70.942,26.426 71.167,26.293 71.167 C 26.159 71.167,25.739 71.392,25.360 71.667 C 24.980 71.942,24.583 72.167,24.478 72.167 C 24.373 72.167,23.940 72.373,23.516 72.625 C 23.092 72.877,22.465 73.226,22.122 73.401 L 21.500 73.719 21.542 176.235 L 21.583 278.750 24.589 280.254 C 26.243 281.081,27.878 281.925,28.224 282.129 C 28.570 282.333,28.934 282.500,29.033 282.500 C 29.132 282.500,29.579 282.725,30.026 283.000 C 30.473 283.275,30.923 283.500,31.026 283.500 C 31.129 283.500,31.579 283.725,32.026 284.000 C 32.473 284.275,32.923 284.500,33.026 284.500 C 33.129 284.500,33.579 284.725,34.026 285.000 C 34.473 285.275,34.923 285.500,35.026 285.500 C 35.129 285.500,35.579 285.725,36.026 286.000 C 36.473 286.275,36.923 286.500,37.026 286.500 C 37.129 286.500,37.579 286.725,38.026 287.000 C 38.473 287.275,38.923 287.500,39.026 287.500 C 39.129 287.500,39.579 287.725,40.026 288.000 C 40.473 288.275,40.923 288.500,41.026 288.500 C 41.129 288.500,41.579 288.725,42.026 289.000 C 42.473 289.275,42.909 289.500,42.995 289.500 C 43.081 289.500,43.534 289.725,44.000 290.000 C 45.061 290.626,45.431 290.626,46.350 290.003 C 46.753 289.730,47.143 289.505,47.215 289.503 C 47.384 289.499,48.399 288.790,48.472 288.625 C 48.503 288.556,48.639 288.500,48.775 288.500 C 48.911 288.500,49.261 288.321,49.553 288.102 C 49.845 287.884,50.409 287.527,50.806 287.311 C 51.850 286.741,52.327 286.461,53.122 285.952 C 53.509 285.703,53.898 285.500,53.985 285.500 C 54.072 285.500,54.243 285.400,54.366 285.277 C 54.488 285.155,54.961 284.846,55.416 284.592 C 55.871 284.338,56.424 283.988,56.644 283.815 C 56.865 283.642,57.129 283.498,57.231 283.495 C 57.333 283.493,57.711 283.268,58.071 282.995 C 58.431 282.723,58.784 282.500,58.855 282.500 C 58.925 282.500,59.317 282.275,59.724 282.000 C 60.132 281.725,60.538 281.500,60.627 281.500 C 60.716 281.500,60.969 281.358,61.189 281.185 C 61.409 281.012,61.962 280.662,62.417 280.408 C 62.872 280.154,63.345 279.845,63.468 279.723 C 63.590 279.600,63.765 279.500,63.857 279.500 C 63.948 279.500,64.350 279.275,64.750 279.000 C 65.150 278.725,65.542 278.500,65.623 278.500 C 65.703 278.500,66.027 278.309,66.343 278.075 C 66.658 277.842,67.235 277.491,67.625 277.296 C 68.015 277.101,68.333 276.879,68.333 276.804 C 68.333 276.728,68.478 276.667,68.655 276.667 C 68.832 276.667,69.076 276.566,69.199 276.444 C 69.322 276.321,69.781 276.020,70.220 275.775 C 70.659 275.530,71.221 275.192,71.468 275.025 C 72.273 274.478,73.685 273.667,73.833 273.667 C 73.912 273.667,74.076 273.566,74.199 273.444 C 74.322 273.321,74.796 273.014,75.253 272.761 C 75.709 272.507,76.196 272.206,76.333 272.091 C 76.471 271.976,76.940 271.707,77.375 271.495 C 77.810 271.282,78.167 271.051,78.167 270.982 C 78.167 270.912,78.335 270.803,78.542 270.738 C 78.748 270.674,79.230 270.406,79.613 270.144 C 79.997 269.881,80.380 269.667,80.466 269.667 C 80.552 269.667,80.802 269.525,81.022 269.352 C 81.243 269.178,81.795 268.828,82.251 268.574 C 82.706 268.320,83.178 268.012,83.301 267.889 C 83.424 267.767,83.595 267.667,83.682 267.667 C 83.769 267.667,84.157 267.463,84.545 267.215 C 85.339 266.705,85.817 266.425,86.861 265.856 C 87.258 265.639,87.822 265.283,88.114 265.064 C 88.406 264.846,88.762 264.667,88.906 264.667 C 89.049 264.667,89.167 264.604,89.167 264.527 C 89.167 264.450,89.335 264.298,89.542 264.190 C 89.748 264.082,90.217 263.812,90.583 263.591 C 90.950 263.369,91.620 262.988,92.071 262.743 C 92.523 262.498,92.997 262.193,93.125 262.065 C 93.253 261.938,93.432 261.833,93.524 261.833 C 93.615 261.833,94.017 261.608,94.417 261.333 C 94.816 261.058,95.214 260.833,95.299 260.833 C 95.385 260.833,95.635 260.692,95.856 260.518 C 96.076 260.345,96.629 259.995,97.084 259.741 C 97.539 259.487,98.012 259.179,98.134 259.056 C 98.257 258.934,98.428 258.833,98.515 258.833 C 98.603 258.833,98.969 258.638,99.331 258.399 C 99.981 257.968,100.294 257.786,101.694 257.023 C 102.091 256.806,102.655 256.450,102.947 256.231 C 103.239 256.012,103.589 255.833,103.725 255.833 C 103.861 255.833,103.997 255.777,104.028 255.708 C 104.100 255.546,105.116 254.833,105.276 254.833 C 105.343 254.833,105.665 254.657,105.991 254.441 C 106.544 254.075,109.391 252.356,110.042 251.995 C 111.299 251.298,112.565 250.532,112.909 250.258 C 113.088 250.116,113.296 250.000,113.371 250.000 C 113.446 250.000,113.803 249.804,114.164 249.565 C 114.815 249.135,115.127 248.953,116.527 248.189 C 116.925 247.973,117.489 247.616,117.781 247.398 C 118.072 247.179,118.429 247.000,118.572 247.000 C 118.716 247.000,118.833 246.937,118.833 246.860 C 118.833 246.783,119.002 246.632,119.208 246.523 C 119.415 246.415,119.883 246.146,120.250 245.924 C 120.617 245.703,121.217 245.359,121.583 245.159 C 121.950 244.959,122.489 244.616,122.781 244.398 C 123.072 244.179,123.429 244.000,123.572 244.000 C 123.716 244.000,123.833 243.934,123.833 243.854 C 123.833 243.773,124.058 243.614,124.333 243.500 C 124.608 243.386,124.833 243.227,124.833 243.146 C 124.833 243.066,124.951 243.000,125.094 243.000 C 125.238 243.000,125.594 242.821,125.886 242.603 C 126.178 242.385,126.679 242.074,127.000 241.913 C 127.321 241.752,127.621 241.566,127.667 241.500 C 127.712 241.434,128.012 241.248,128.333 241.087 C 128.654 240.926,129.155 240.615,129.447 240.397 C 129.739 240.179,130.058 240.000,130.157 240.000 C 130.256 240.000,130.647 239.775,131.026 239.500 C 131.406 239.225,131.792 239.000,131.884 239.000 C 131.976 239.000,132.284 238.823,132.568 238.607 C 132.851 238.391,133.383 238.049,133.750 237.846 C 134.117 237.644,134.717 237.298,135.083 237.078 C 135.450 236.859,136.050 236.518,136.417 236.321 C 136.783 236.123,137.322 235.783,137.614 235.564 C 137.906 235.346,138.195 235.167,138.256 235.167 C 138.318 235.167,138.702 234.942,139.109 234.667 C 139.517 234.392,139.926 234.167,140.019 234.167 C 140.113 234.167,140.428 233.988,140.719 233.770 C 141.011 233.551,141.505 233.243,141.818 233.085 C 142.130 232.927,142.467 232.726,142.568 232.638 C 142.724 232.501,143.857 231.810,144.667 231.359 C 145.831 230.709,147.250 229.855,147.436 229.692 C 147.539 229.602,148.014 229.315,148.493 229.056 C 149.666 228.419,150.123 228.152,150.955 227.619 C 151.343 227.370,151.711 227.167,151.773 227.167 C 151.835 227.167,152.117 226.990,152.401 226.774 C 152.685 226.558,153.242 226.202,153.639 225.982 C 155.174 225.135,155.366 225.023,156.003 224.601 C 156.364 224.362,156.723 224.167,156.800 224.167 C 156.877 224.167,157.235 223.944,157.595 223.671 C 157.955 223.399,158.318 223.174,158.401 223.171 C 158.484 223.169,158.798 222.979,159.098 222.750 C 159.399 222.521,159.729 222.333,159.833 222.333 C 159.937 222.333,160.261 222.155,160.553 221.936 C 160.845 221.718,161.346 221.408,161.667 221.246 C 161.987 221.085,162.287 220.899,162.333 220.832 C 162.379 220.765,162.817 220.494,163.306 220.230 C 164.481 219.596,164.943 219.328,165.788 218.785 C 166.176 218.537,166.544 218.333,166.606 218.333 C 166.668 218.333,166.951 218.157,167.234 217.941 C 167.518 217.725,168.075 217.369,168.473 217.149 C 169.571 216.543,170.018 216.279,170.788 215.785 C 171.176 215.537,171.560 215.333,171.641 215.333 C 171.722 215.333,171.969 215.192,172.189 215.018 C 172.409 214.845,172.962 214.495,173.417 214.241 C 173.872 213.987,174.345 213.679,174.468 213.556 C 174.590 213.434,174.761 213.333,174.848 213.333 C 175.057 213.333,176.162 212.613,176.165 212.475 C 176.167 212.357,175.303 211.799,174.250 211.240 C 173.883 211.046,173.208 210.677,172.750 210.421 C 172.292 210.164,171.579 209.770,171.167 209.545 C 170.754 209.320,169.967 208.881,169.417 208.570 C 168.867 208.259,167.972 207.771,167.429 207.486 C 166.886 207.200,166.337 206.861,166.209 206.733 C 166.081 206.605,165.856 206.500,165.710 206.500 C 165.563 206.500,165.325 206.396,165.180 206.269 C 165.035 206.142,164.467 205.793,163.917 205.495 C 162.659 204.812,160.687 203.712,158.417 202.430 C 157.867 202.119,157.042 201.664,156.583 201.419 C 156.125 201.174,155.632 200.867,155.487 200.737 C 155.342 200.607,155.131 200.500,155.017 200.500 C 154.903 200.500,154.483 200.275,154.083 200.000 C 153.684 199.725,153.243 199.500,153.105 199.500 C 152.966 199.500,152.805 199.423,152.747 199.329 C 152.689 199.235,152.141 198.893,151.529 198.569 C 150.917 198.245,150.117 197.808,149.750 197.598 C 149.111 197.231,147.938 196.583,146.333 195.710 C 145.921 195.486,145.133 195.048,144.583 194.737 C 144.033 194.426,143.171 193.941,142.667 193.659 C 142.162 193.377,141.450 192.975,141.083 192.764 C 140.717 192.554,139.892 192.099,139.250 191.754 C 138.608 191.409,137.971 191.033,137.833 190.919 C 137.696 190.805,137.377 190.662,137.125 190.603 C 136.873 190.543,136.667 190.433,136.667 190.359 C 136.667 190.284,136.302 190.053,135.856 189.844 L 135.045 189.464 134.314 189.812 C 133.912 190.003,133.096 190.430,132.500 190.760 C 131.904 191.091,130.742 191.719,129.917 192.155 C 128.229 193.047,126.411 194.029,124.822 194.907 C 124.232 195.233,123.150 195.807,122.417 196.184 C 121.683 196.560,120.558 197.159,119.917 197.514 C 119.275 197.869,118.423 198.311,118.024 198.498 C 117.625 198.684,117.109 198.986,116.877 199.168 C 116.645 199.351,116.347 199.500,116.216 199.500 C 116.084 199.500,115.650 199.725,115.250 200.000 C 114.850 200.275,114.435 200.500,114.327 200.500 C 114.220 200.500,113.798 200.725,113.391 201.000 C 112.983 201.275,112.558 201.500,112.445 201.500 C 112.333 201.500,112.067 201.622,111.854 201.771 C 111.642 201.920,111.006 202.284,110.442 202.580 C 109.566 203.040,108.411 203.662,107.216 204.319 C 106.759 204.570,103.407 206.370,102.000 207.120 C 101.313 207.487,100.300 208.030,99.750 208.327 C 98.528 208.986,97.666 209.434,97.333 209.581 C 97.196 209.642,96.633 209.945,96.083 210.255 C 95.533 210.564,94.633 211.050,94.083 211.333 C 93.533 211.617,92.633 212.102,92.083 212.411 C 91.533 212.720,90.687 213.163,90.203 213.396 C 89.719 213.629,89.208 213.935,89.067 214.076 C 88.925 214.218,88.695 214.333,88.554 214.333 C 88.413 214.333,87.965 214.558,87.557 214.833 C 87.150 215.108,86.750 215.333,86.668 215.333 C 86.463 215.333,85.263 216.042,85.194 216.203 C 85.164 216.275,85.022 216.333,84.880 216.333 C 84.737 216.333,84.255 216.558,83.808 216.833 C 83.361 217.108,82.963 217.333,82.923 217.333 C 82.884 217.333,80.779 218.458,78.244 219.833 C 75.710 221.208,73.607 222.333,73.571 222.333 C 73.535 222.333,73.139 222.558,72.692 222.833 C 72.245 223.108,71.757 223.333,71.607 223.333 C 71.456 223.333,71.333 223.399,71.333 223.479 C 71.333 223.560,70.940 223.793,70.458 223.998 C 69.977 224.203,69.452 224.486,69.292 224.628 C 69.018 224.869,69.000 224.829,69.006 223.984 C 69.010 223.489,68.860 213.483,68.673 201.750 C 68.485 190.017,68.144 168.492,67.915 153.917 C 67.685 139.342,67.458 126.757,67.409 125.951 L 67.320 124.485 67.840 124.784 C 68.126 124.949,68.574 125.203,68.835 125.348 C 69.096 125.494,69.506 125.741,69.745 125.898 C 70.155 126.167,70.526 126.377,72.458 127.433 C 72.894 127.671,73.325 127.926,73.417 128.000 C 73.508 128.074,73.921 128.317,74.333 128.539 C 75.466 129.150,76.397 129.687,76.583 129.835 C 76.675 129.908,77.087 130.153,77.500 130.378 C 77.912 130.604,78.623 130.993,79.079 131.243 C 79.534 131.492,80.108 131.840,80.354 132.015 C 80.600 132.190,80.854 132.333,80.918 132.333 C 80.982 132.333,81.368 132.558,81.776 132.833 C 82.183 133.108,82.601 133.333,82.704 133.333 C 82.806 133.333,83.009 133.440,83.154 133.570 C 83.298 133.700,83.792 134.006,84.250 134.250 C 84.708 134.494,85.571 134.981,86.167 135.333 C 86.763 135.686,87.625 136.173,88.083 136.417 C 88.542 136.660,89.035 136.966,89.180 137.096 C 89.325 137.227,89.527 137.333,89.630 137.333 C 89.733 137.333,90.139 137.549,90.533 137.812 C 90.927 138.076,91.419 138.343,91.625 138.407 C 91.831 138.470,92.000 138.580,92.000 138.651 C 92.000 138.721,92.394 138.984,92.875 139.234 C 93.356 139.485,94.237 139.978,94.833 140.332 C 95.429 140.685,96.254 141.156,96.667 141.379 C 97.898 142.045,98.740 142.527,98.917 142.668 C 99.008 142.741,99.440 142.996,99.875 143.234 C 101.947 144.366,102.269 144.549,102.662 144.815 C 102.894 144.971,103.271 145.193,103.500 145.307 C 103.729 145.421,104.404 145.805,105.000 146.161 C 105.596 146.516,106.458 147.006,106.917 147.250 C 107.375 147.494,107.868 147.800,108.013 147.930 C 108.158 148.060,108.360 148.167,108.463 148.167 C 108.566 148.167,108.983 148.392,109.391 148.667 C 109.798 148.942,110.209 149.167,110.304 149.167 C 110.399 149.167,110.581 149.271,110.708 149.399 C 110.836 149.526,111.348 149.836,111.845 150.087 C 112.343 150.338,112.787 150.599,112.833 150.667 C 112.879 150.734,113.324 150.995,113.821 151.246 C 114.319 151.497,114.831 151.807,114.958 151.935 C 115.086 152.062,115.329 152.167,115.498 152.167 C 115.667 152.167,115.831 152.223,115.861 152.292 C 115.956 152.506,116.975 153.167,117.210 153.167 C 117.333 153.167,117.526 153.260,117.640 153.375 C 117.754 153.490,118.275 153.823,118.799 154.116 C 121.106 155.407,121.622 155.699,122.250 156.065 C 122.617 156.280,123.292 156.660,123.750 156.910 C 124.208 157.161,124.658 157.426,124.750 157.500 C 124.842 157.574,125.292 157.840,125.750 158.092 C 126.208 158.343,126.808 158.672,127.083 158.823 C 127.358 158.975,127.883 159.285,128.250 159.513 C 128.617 159.742,129.104 160.023,129.333 160.138 C 129.563 160.253,130.237 160.639,130.833 160.994 C 131.429 161.350,132.277 161.833,132.718 162.068 C 133.159 162.304,133.634 162.610,133.772 162.748 C 133.910 162.887,134.168 163.000,134.345 163.000 C 134.522 163.000,134.667 163.066,134.667 163.146 C 134.667 163.227,134.892 163.386,135.167 163.500 C 135.442 163.614,135.667 163.773,135.667 163.854 C 135.667 163.934,135.811 164.000,135.988 164.000 C 136.165 164.000,136.414 164.104,136.542 164.232 C 136.669 164.360,137.181 164.670,137.679 164.921 C 138.176 165.172,138.621 165.432,138.667 165.500 C 138.712 165.568,139.125 165.825,139.583 166.071 C 141.363 167.028,142.328 167.592,142.526 167.792 C 142.640 167.906,142.844 168.000,142.979 168.000 C 143.113 168.000,143.342 168.103,143.487 168.228 C 143.739 168.447,144.548 168.920,146.167 169.794 C 146.579 170.017,146.992 170.259,147.083 170.333 C 147.175 170.407,147.606 170.663,148.042 170.901 C 148.477 171.139,149.184 171.526,149.612 171.761 C 150.041 171.996,150.576 172.333,150.802 172.511 C 151.027 172.688,151.284 172.833,151.373 172.833 C 151.462 172.833,151.868 173.058,152.276 173.333 C 152.683 173.608,153.110 173.833,153.225 173.833 C 153.340 173.833,153.526 173.927,153.640 174.042 C 153.839 174.242,154.804 174.806,156.583 175.762 C 157.042 176.009,157.454 176.266,157.500 176.333 C 157.546 176.401,157.958 176.658,158.417 176.904 C 160.196 177.861,161.161 178.425,161.360 178.625 C 161.474 178.740,161.677 178.833,161.812 178.833 C 161.947 178.833,162.175 178.940,162.320 179.070 C 162.465 179.200,162.958 179.506,163.417 179.750 C 163.875 179.994,164.737 180.481,165.333 180.833 C 165.929 181.186,166.754 181.656,167.167 181.879 C 168.398 182.545,169.240 183.027,169.417 183.168 C 169.508 183.241,169.940 183.496,170.375 183.734 C 172.447 184.866,172.769 185.049,173.162 185.315 C 173.394 185.471,173.771 185.692,174.000 185.804 C 174.229 185.916,174.904 186.307,175.500 186.673 C 176.096 187.038,176.771 187.427,177.000 187.536 C 177.229 187.646,177.730 187.945,178.113 188.201 C 178.497 188.457,178.879 188.667,178.963 188.667 C 179.048 188.667,179.427 188.892,179.807 189.167 C 180.187 189.442,180.586 189.667,180.694 189.667 C 180.802 189.667,181.009 189.773,181.154 189.904 C 181.298 190.034,181.792 190.340,182.250 190.583 C 182.708 190.827,183.571 191.314,184.167 191.667 C 184.762 192.019,185.625 192.506,186.083 192.750 C 186.542 192.994,187.035 193.300,187.180 193.430 C 187.325 193.560,187.544 193.667,187.667 193.667 C 187.790 193.667,188.009 193.773,188.154 193.904 C 188.298 194.034,188.792 194.339,189.250 194.581 C 189.708 194.823,190.533 195.288,191.083 195.614 C 191.633 195.940,192.421 196.395,192.833 196.625 C 193.246 196.855,193.702 197.146,193.846 197.272 C 193.991 197.397,194.194 197.500,194.296 197.500 C 194.399 197.500,194.817 197.725,195.224 198.000 C 195.632 198.275,196.038 198.500,196.127 198.500 C 196.216 198.500,196.473 198.645,196.698 198.823 C 196.924 199.000,197.459 199.337,197.888 199.573 C 198.316 199.808,199.021 200.194,199.454 200.432 C 199.886 200.669,200.430 200.991,200.662 201.148 C 200.894 201.305,201.271 201.522,201.500 201.631 C 201.729 201.741,202.404 202.126,203.000 202.488 C 203.596 202.850,204.458 203.345,204.917 203.586 C 205.375 203.828,205.868 204.133,206.013 204.263 C 206.158 204.393,206.360 204.500,206.463 204.500 C 206.566 204.500,206.983 204.725,207.391 205.000 C 207.798 205.275,208.209 205.500,208.304 205.500 C 208.399 205.500,208.581 205.604,208.708 205.732 C 208.836 205.860,209.348 206.170,209.845 206.421 C 210.343 206.672,210.787 206.932,210.833 207.000 C 210.879 207.068,211.324 207.328,211.821 207.579 C 212.319 207.830,212.831 208.140,212.958 208.268 C 213.086 208.396,213.335 208.500,213.512 208.500 C 213.689 208.500,213.833 208.559,213.833 208.632 C 213.833 208.704,214.227 208.974,214.708 209.230 C 215.190 209.487,216.071 209.984,216.667 210.335 C 217.262 210.686,218.125 211.173,218.583 211.417 C 219.042 211.660,219.535 211.966,219.680 212.096 C 219.825 212.227,220.031 212.333,220.140 212.333 C 220.248 212.333,220.647 212.558,221.026 212.833 C 221.406 213.108,221.788 213.333,221.874 213.333 C 221.961 213.333,222.233 213.477,222.479 213.652 C 222.725 213.827,223.262 214.154,223.671 214.380 C 224.081 214.605,224.790 214.993,225.245 215.243 C 225.701 215.492,226.263 215.825,226.495 215.981 C 226.727 216.138,227.104 216.360,227.333 216.474 C 227.563 216.588,228.237 216.972,228.833 217.327 C 229.429 217.683,230.292 218.173,230.750 218.417 C 231.208 218.660,231.702 218.966,231.846 219.096 C 231.991 219.227,232.235 219.333,232.388 219.333 C 232.541 219.333,232.667 219.399,232.667 219.480 C 232.667 219.560,232.892 219.719,233.167 219.833 C 233.442 219.947,233.667 220.106,233.667 220.187 C 233.667 220.267,233.811 220.333,233.988 220.333 C 234.165 220.333,234.414 220.438,234.542 220.565 C 234.669 220.693,235.181 221.003,235.679 221.254 C 236.176 221.505,236.621 221.766,236.667 221.833 C 236.713 221.901,237.138 222.152,237.613 222.392 C 238.088 222.631,238.524 222.903,238.581 222.997 C 238.639 223.090,238.807 223.167,238.955 223.167 C 239.103 223.167,239.342 223.273,239.487 223.404 C 239.632 223.534,240.125 223.840,240.583 224.083 C 241.042 224.327,241.904 224.817,242.500 225.173 C 243.096 225.528,243.771 225.912,244.000 226.026 C 244.229 226.140,244.606 226.362,244.838 226.519 C 245.070 226.675,245.614 226.998,246.046 227.235 C 246.479 227.472,247.187 227.861,247.620 228.098 C 248.053 228.336,248.608 228.673,248.854 228.848 C 249.100 229.023,249.354 229.167,249.418 229.167 C 249.482 229.167,249.868 229.392,250.276 229.667 C 250.683 229.942,251.110 230.167,251.225 230.167 C 251.340 230.167,251.526 230.260,251.640 230.375 C 251.839 230.575,252.804 231.139,254.583 232.096 C 255.042 232.342,255.454 232.599,255.500 232.667 C 255.546 232.734,255.991 232.995,256.488 233.246 C 256.986 233.497,257.497 233.807,257.625 233.935 C 257.753 234.062,257.996 234.167,258.165 234.167 C 258.334 234.167,258.497 234.223,258.528 234.292 C 258.623 234.506,259.642 235.167,259.877 235.167 C 259.999 235.167,260.193 235.260,260.307 235.375 C 260.508 235.577,261.535 236.174,263.250 237.084 C 263.708 237.327,264.202 237.633,264.346 237.763 C 264.491 237.893,264.694 238.000,264.796 238.000 C 264.899 238.000,265.317 238.225,265.724 238.500 C 266.132 238.775,266.538 239.000,266.627 239.000 C 266.716 239.000,266.973 239.145,267.198 239.323 C 267.424 239.500,267.959 239.837,268.388 240.073 C 268.816 240.308,269.521 240.694,269.954 240.932 C 270.386 241.169,270.930 241.491,271.162 241.648 C 271.394 241.805,271.771 242.022,272.000 242.131 C 272.229 242.241,272.904 242.629,273.500 242.994 C 274.096 243.359,274.771 243.750,275.000 243.863 C 275.229 243.975,275.606 244.195,275.838 244.352 C 276.070 244.509,276.632 244.842,277.088 245.093 C 277.544 245.343,278.142 245.672,278.417 245.823 C 278.692 245.975,279.217 246.285,279.583 246.513 C 279.950 246.742,280.438 247.023,280.667 247.138 C 280.896 247.253,281.571 247.639,282.167 247.994 C 282.762 248.350,283.625 248.840,284.083 249.083 C 284.542 249.327,285.035 249.633,285.180 249.763 C 285.325 249.893,285.564 250.000,285.712 250.000 C 285.859 250.000,286.028 250.077,286.086 250.170 C 286.144 250.264,286.642 250.583,287.194 250.879 C 288.443 251.549,288.907 251.810,289.750 252.321 C 290.398 252.714,290.923 253.014,292.042 253.633 C 292.340 253.797,292.883 254.119,293.250 254.347 C 293.617 254.575,294.104 254.855,294.333 254.968 C 294.563 255.082,295.237 255.474,295.833 255.839 C 296.429 256.205,297.104 256.593,297.333 256.702 C 297.563 256.811,297.940 257.029,298.171 257.185 C 298.403 257.342,298.947 257.664,299.380 257.902 C 299.813 258.139,300.517 258.526,300.946 258.761 C 301.374 258.996,301.909 259.333,302.135 259.511 C 302.360 259.688,302.618 259.833,302.707 259.833 C 302.796 259.833,303.202 260.058,303.609 260.333 C 304.017 260.608,304.444 260.833,304.558 260.833 C 304.673 260.833,304.860 260.927,304.974 261.042 C 305.179 261.248,306.205 261.846,308.030 262.820 C 308.550 263.098,309.023 263.403,309.081 263.496 C 309.139 263.590,309.332 263.667,309.510 263.667 C 309.688 263.667,309.833 263.733,309.833 263.813 C 309.833 263.894,310.058 264.053,310.333 264.167 C 310.608 264.281,310.833 264.440,310.833 264.520 C 310.833 264.601,310.978 264.667,311.155 264.667 C 311.332 264.667,311.581 264.771,311.708 264.899 C 311.836 265.026,312.310 265.331,312.762 265.575 C 313.214 265.820,314.071 266.310,314.667 266.664 C 315.262 267.018,316.125 267.506,316.583 267.750 C 317.042 267.994,317.535 268.300,317.680 268.430 C 317.825 268.560,318.027 268.667,318.130 268.667 C 318.233 268.667,318.650 268.892,319.057 269.167 C 319.465 269.442,319.851 269.667,319.915 269.667 C 319.979 269.667,320.233 269.810,320.479 269.985 C 320.725 270.160,321.280 270.498,321.713 270.735 C 322.146 270.972,322.854 271.361,323.287 271.598 C 323.720 271.836,324.263 272.158,324.495 272.315 C 324.727 272.471,325.104 272.693,325.333 272.807 C 325.563 272.921,326.237 273.305,326.833 273.661 C 327.429 274.016,328.292 274.506,328.750 274.750 C 329.208 274.994,329.702 275.300,329.846 275.430 C 329.991 275.560,330.194 275.667,330.296 275.667 C 330.399 275.667,330.817 275.892,331.224 276.167 C 331.632 276.442,332.043 276.667,332.137 276.667 C 332.232 276.667,332.414 276.771,332.542 276.899 C 332.669 277.026,333.176 277.334,333.667 277.583 C 334.158 277.832,334.664 278.140,334.792 278.268 C 334.919 278.396,335.168 278.500,335.345 278.500 C 335.522 278.500,335.667 278.566,335.667 278.646 C 335.667 278.727,335.892 278.886,336.167 279.000 C 336.442 279.114,336.667 279.273,336.667 279.354 C 336.667 279.434,336.792 279.500,336.945 279.500 C 337.098 279.500,337.342 279.607,337.487 279.737 C 337.632 279.867,338.125 280.173,338.583 280.417 C 339.042 280.660,339.904 281.150,340.500 281.506 C 341.096 281.861,341.771 282.246,342.000 282.360 C 342.229 282.474,342.606 282.695,342.838 282.852 C 343.070 283.009,343.614 283.331,344.046 283.568 C 344.479 283.806,345.187 284.194,345.620 284.432 C 346.053 284.669,346.608 285.006,346.854 285.182 C 347.100 285.357,347.372 285.500,347.459 285.500 C 347.546 285.500,347.927 285.725,348.307 286.000 C 348.687 286.275,349.086 286.500,349.194 286.500 C 349.302 286.500,349.509 286.607,349.654 286.737 C 349.798 286.867,350.292 287.173,350.750 287.417 C 351.208 287.660,352.071 288.149,352.667 288.503 C 353.262 288.857,354.120 289.347,354.571 289.591 C 355.023 289.836,355.497 290.140,355.625 290.268 C 355.953 290.595,356.786 290.556,357.308 290.188 C 357.551 290.017,358.050 289.724,358.417 289.538 C 358.783 289.352,359.571 288.934,360.167 288.610 C 362.007 287.610,363.046 287.059,364.000 286.580 C 364.504 286.326,365.096 285.980,365.314 285.809 C 365.533 285.639,365.819 285.500,365.951 285.500 C 366.082 285.500,366.517 285.275,366.917 285.000 C 367.316 284.725,367.732 284.500,367.839 284.500 C 367.947 284.500,368.368 284.275,368.776 284.000 C 369.183 283.725,369.609 283.500,369.721 283.500 C 369.834 283.500,370.100 283.378,370.312 283.229 C 370.525 283.080,371.198 282.696,371.808 282.375 C 372.418 282.054,373.292 281.590,373.750 281.344 C 374.208 281.098,375.183 280.574,375.917 280.181 C 376.650 279.787,377.531 279.309,377.875 279.119 L 378.500 278.772 378.500 176.229 L 378.500 73.686 378.130 73.426 C 377.926 73.283,377.626 73.167,377.463 73.167 C 377.300 73.167,377.167 73.101,377.167 73.020 C 377.167 72.940,376.942 72.781,376.667 72.667 C 376.392 72.553,376.167 72.394,376.167 72.313 C 376.167 72.233,376.022 72.167,375.845 72.167 C 375.668 72.167,375.419 72.062,375.291 71.934 C 375.163 71.806,374.614 71.458,374.071 71.161 C 373.528 70.864,372.746 70.437,372.333 70.211 C 371.921 69.986,371.508 69.741,371.417 69.667 C 371.254 69.535,370.788 69.274,368.750 68.170 C 368.200 67.872,367.632 67.525,367.487 67.398 C 367.342 67.271,367.123 67.167,367.000 67.167 C 366.877 67.167,366.658 67.060,366.513 66.930 C 366.368 66.800,365.837 66.488,365.333 66.237 C 364.829 65.986,364.379 65.728,364.333 65.662 C 364.287 65.597,363.843 65.338,363.345 65.087 C 362.848 64.836,362.336 64.526,362.208 64.399 C 362.081 64.271,361.832 64.167,361.655 64.167 C 361.478 64.167,361.333 64.106,361.333 64.032 C 361.333 63.958,360.865 63.654,360.292 63.356 C 359.719 63.058,358.762 62.518,358.167 62.155 C 357.571 61.792,356.783 61.344,356.417 61.160 C 356.050 60.976,355.545 60.696,355.294 60.538 C 354.893 60.286,354.791 60.279,354.460 60.486 C 354.253 60.616,353.746 60.903,353.333 61.124 C 352.921 61.345,352.096 61.814,351.500 62.167 C 350.904 62.519,350.042 63.006,349.583 63.250 C 349.125 63.494,348.632 63.800,348.487 63.930 C 348.342 64.060,348.123 64.167,348.000 64.167 C 347.877 64.167,347.658 64.273,347.513 64.404 C 347.368 64.534,346.875 64.840,346.417 65.083 C 345.958 65.327,345.096 65.814,344.500 66.167 C 343.904 66.519,343.042 67.006,342.583 67.250 C 342.125 67.494,341.632 67.800,341.487 67.930 C 341.342 68.060,341.123 68.167,341.000 68.167 C 340.877 68.167,340.658 68.273,340.513 68.404 C 340.368 68.534,339.875 68.840,339.417 69.083 C 338.958 69.327,338.096 69.814,337.500 70.167 C 336.904 70.519,336.042 71.006,335.583 71.250 C 335.125 71.494,334.632 71.800,334.487 71.930 C 334.342 72.060,334.113 72.167,333.979 72.167 C 333.844 72.167,333.640 72.260,333.526 72.375 C 333.413 72.490,332.891 72.823,332.368 73.116 C 330.206 74.326,329.547 74.697,328.833 75.106 C 328.421 75.343,327.746 75.720,327.333 75.945 C 326.921 76.170,326.096 76.650,325.500 77.012 C 324.904 77.374,324.229 77.759,324.000 77.869 C 323.771 77.978,323.394 78.195,323.162 78.352 C 322.769 78.618,322.447 78.800,320.375 79.933 C 319.940 80.171,319.508 80.426,319.417 80.500 C 319.325 80.574,318.894 80.829,318.458 81.067 C 318.023 81.305,317.310 81.695,316.875 81.933 C 316.440 82.171,316.008 82.426,315.917 82.500 C 315.825 82.574,315.394 82.829,314.958 83.067 C 314.523 83.305,313.810 83.695,313.375 83.933 C 312.940 84.171,312.508 84.426,312.417 84.500 C 312.325 84.574,311.894 84.829,311.458 85.067 C 311.023 85.305,310.310 85.695,309.875 85.933 C 309.440 86.171,309.008 86.426,308.917 86.500 C 308.825 86.574,308.394 86.829,307.958 87.067 C 307.523 87.305,306.830 87.689,306.418 87.920 C 306.007 88.151,305.313 88.533,304.877 88.769 C 304.440 89.006,304.008 89.259,303.917 89.333 C 303.825 89.407,303.394 89.663,302.958 89.901 C 302.523 90.139,301.810 90.528,301.375 90.766 C 300.940 91.004,300.508 91.259,300.417 91.333 C 300.325 91.407,299.894 91.663,299.458 91.901 C 299.023 92.139,298.310 92.528,297.875 92.766 C 297.440 93.004,297.008 93.259,296.917 93.333 C 296.825 93.407,296.394 93.663,295.958 93.901 C 295.523 94.139,294.813 94.528,294.380 94.765 C 293.947 95.002,293.392 95.340,293.146 95.515 C 292.900 95.690,292.646 95.833,292.582 95.833 C 292.518 95.833,292.132 96.058,291.724 96.333 C 291.317 96.608,290.899 96.833,290.796 96.833 C 290.694 96.833,290.491 96.940,290.346 97.070 C 290.202 97.200,289.708 97.506,289.250 97.750 C 288.792 97.994,287.929 98.481,287.333 98.833 C 286.737 99.186,285.875 99.673,285.417 99.917 C 284.958 100.160,284.465 100.466,284.320 100.596 C 284.175 100.727,283.936 100.833,283.788 100.833 C 283.641 100.833,283.472 100.910,283.414 101.004 C 283.356 101.097,282.883 101.402,282.363 101.680 C 280.538 102.654,279.512 103.252,279.307 103.458 C 279.193 103.573,278.990 103.667,278.855 103.667 C 278.720 103.667,278.491 103.773,278.346 103.904 C 278.202 104.034,277.708 104.340,277.250 104.583 C 276.792 104.827,275.929 105.314,275.333 105.667 C 274.737 106.019,273.875 106.506,273.417 106.750 C 272.958 106.994,272.465 107.300,272.320 107.430 C 272.175 107.560,271.956 107.667,271.833 107.667 C 271.710 107.667,271.491 107.773,271.346 107.904 C 271.202 108.034,270.708 108.340,270.250 108.583 C 269.792 108.827,268.929 109.314,268.333 109.667 C 267.737 110.019,266.875 110.506,266.417 110.750 C 265.958 110.994,265.465 111.300,265.320 111.430 C 265.175 111.560,264.956 111.667,264.833 111.667 C 264.710 111.667,264.491 111.773,264.346 111.904 C 264.202 112.034,263.708 112.340,263.250 112.583 C 262.792 112.827,261.929 113.316,261.333 113.670 C 260.737 114.024,259.875 114.515,259.417 114.761 C 258.958 115.008,258.558 115.275,258.528 115.355 C 258.497 115.435,258.334 115.500,258.165 115.500 C 257.996 115.500,257.753 115.604,257.625 115.732 C 257.497 115.860,256.986 116.170,256.488 116.421 C 255.991 116.672,255.546 116.932,255.500 117.000 C 255.454 117.068,255.009 117.328,254.512 117.579 C 254.014 117.830,253.503 118.140,253.375 118.268 C 253.247 118.396,252.998 118.500,252.821 118.500 C 252.645 118.500,252.500 118.566,252.500 118.646 C 252.500 118.727,252.275 118.886,252.000 119.000 C 251.725 119.114,251.500 119.273,251.500 119.354 C 251.500 119.434,251.355 119.500,251.179 119.500 C 251.002 119.500,250.753 119.604,250.625 119.732 C 250.497 119.860,249.986 120.170,249.488 120.421 C 248.991 120.672,248.546 120.932,248.500 121.000 C 248.454 121.068,248.009 121.328,247.512 121.579 C 247.014 121.830,246.503 122.140,246.375 122.268 C 246.247 122.396,245.998 122.500,245.821 122.500 C 245.645 122.500,245.500 122.566,245.500 122.646 C 245.500 122.727,245.275 122.886,245.000 123.000 C 244.725 123.114,244.500 123.273,244.500 123.354 C 244.500 123.434,244.355 123.500,244.179 123.500 C 244.002 123.500,243.753 123.604,243.625 123.732 C 243.497 123.860,243.023 124.164,242.571 124.409 C 242.120 124.653,241.262 125.143,240.667 125.497 C 240.071 125.851,239.208 126.340,238.750 126.583 C 238.292 126.827,237.798 127.133,237.654 127.263 C 237.509 127.393,237.280 127.500,237.145 127.500 C 237.010 127.500,236.807 127.594,236.693 127.708 C 236.492 127.910,235.465 128.507,233.750 129.417 C 233.292 129.661,232.798 129.966,232.654 130.096 C 232.509 130.227,232.290 130.333,232.167 130.333 C 232.044 130.333,231.825 130.440,231.680 130.570 C 231.535 130.700,231.042 131.006,230.583 131.250 C 230.125 131.494,229.262 131.981,228.667 132.333 C 228.071 132.686,227.208 133.173,226.750 133.417 C 226.292 133.660,225.798 133.966,225.654 134.096 C 225.509 134.227,225.306 134.333,225.204 134.333 C 225.101 134.333,224.683 134.558,224.276 134.833 C 223.868 135.108,223.462 135.333,223.373 135.333 C 223.145 135.333,222.333 135.993,222.333 136.179 C 222.333 136.264,222.446 136.333,222.583 136.333 C 222.721 136.333,222.833 136.392,222.833 136.465 C 222.833 136.537,223.265 136.854,223.792 137.169 C 224.319 137.484,224.787 137.784,224.833 137.837 C 224.991 138.016,227.038 139.333,227.160 139.333 C 227.227 139.333,227.408 139.472,227.561 139.643 C 227.715 139.813,228.175 140.123,228.583 140.333 C 228.991 140.543,229.451 140.854,229.605 141.024 C 229.759 141.194,229.974 141.333,230.083 141.333 C 230.192 141.333,230.499 141.521,230.766 141.750 C 231.032 141.979,231.309 142.166,231.382 142.166 C 231.499 142.167,232.451 142.784,232.667 143.000 C 232.713 143.046,232.948 143.196,233.191 143.333 C 234.051 143.821,235.584 144.879,235.639 145.022 C 235.669 145.101,235.770 145.167,235.863 145.167 C 235.956 145.167,236.681 145.597,237.474 146.124 C 238.268 146.650,239.038 147.157,239.186 147.249 C 239.469 147.425,239.980 147.761,241.065 148.484 C 241.422 148.722,241.834 148.992,241.982 149.084 C 242.129 149.177,242.899 149.683,243.692 150.209 C 244.486 150.736,245.211 151.167,245.303 151.167 C 245.396 151.167,245.497 151.232,245.528 151.312 C 245.581 151.452,247.061 152.479,247.972 153.008 C 248.881 153.536,250.423 154.571,250.738 154.864 C 250.917 155.030,251.127 155.167,251.205 155.167 C 251.283 155.167,251.550 155.305,251.798 155.474 C 252.047 155.644,252.580 156.000,252.984 156.266 C 253.388 156.532,253.884 156.862,254.087 157.000 C 254.289 157.137,254.821 157.470,255.269 157.740 C 255.717 158.009,256.295 158.403,256.554 158.615 C 256.814 158.827,257.126 159.000,257.249 159.000 C 257.372 159.000,257.497 159.065,257.528 159.145 C 257.582 159.286,258.577 159.973,260.459 161.167 C 260.964 161.487,261.541 161.862,261.741 162.000 C 261.940 162.137,262.474 162.488,262.927 162.780 C 263.380 163.071,263.938 163.454,264.167 163.631 C 264.396 163.808,264.752 164.006,264.958 164.071 C 265.165 164.136,265.333 164.251,265.333 164.327 C 265.333 164.641,265.891 164.645,266.287 164.334 C 266.521 164.150,266.773 164.000,266.847 164.000 C 266.922 164.000,267.317 163.775,267.724 163.500 C 268.132 163.225,268.512 163.000,268.570 163.000 C 268.628 163.000,269.038 162.756,269.483 162.458 C 270.353 161.875,270.814 161.592,272.083 160.861 C 273.305 160.157,274.108 159.667,274.266 159.529 C 274.366 159.441,274.703 159.239,275.016 159.081 C 275.328 158.923,275.822 158.615,276.114 158.397 C 276.406 158.179,276.728 158.000,276.829 158.000 C 276.931 158.000,277.171 157.854,277.363 157.675 C 277.555 157.496,277.983 157.222,278.314 157.066 C 278.646 156.910,279.142 156.620,279.417 156.423 C 279.692 156.226,280.198 155.920,280.542 155.744 C 280.885 155.568,281.167 155.366,281.167 155.295 C 281.167 155.225,281.277 155.167,281.412 155.167 C 281.547 155.167,281.997 154.942,282.412 154.667 C 282.827 154.392,283.506 153.942,283.922 153.667 C 284.337 153.392,284.787 153.167,284.922 153.167 C 285.056 153.167,285.167 153.104,285.167 153.027 C 285.167 152.950,285.335 152.798,285.542 152.690 C 285.748 152.582,286.217 152.312,286.583 152.091 C 286.950 151.870,287.550 151.525,287.917 151.325 C 288.283 151.125,288.822 150.783,289.114 150.564 C 289.406 150.346,289.692 150.167,289.751 150.167 C 289.809 150.167,290.184 149.942,290.583 149.667 C 290.983 149.392,291.385 149.167,291.476 149.167 C 291.568 149.167,291.743 149.066,291.866 148.944 C 291.988 148.821,292.462 148.514,292.919 148.261 C 293.376 148.007,293.862 147.705,294.000 147.588 C 294.137 147.471,294.521 147.250,294.852 147.096 C 295.184 146.943,295.612 146.670,295.804 146.492 C 295.996 146.313,296.236 146.167,296.337 146.167 C 296.439 146.167,296.761 145.988,297.053 145.769 C 297.345 145.550,297.883 145.208,298.250 145.008 C 298.617 144.808,299.217 144.463,299.583 144.242 C 299.950 144.021,300.419 143.751,300.625 143.643 C 300.831 143.535,301.000 143.384,301.000 143.307 C 301.000 143.230,301.141 143.167,301.313 143.167 C 301.485 143.167,301.718 143.055,301.831 142.919 C 302.016 142.696,303.074 142.062,304.417 141.368 C 304.692 141.226,304.954 141.059,305.000 140.997 C 305.046 140.935,305.444 140.684,305.884 140.440 C 306.325 140.196,306.887 139.861,307.134 139.696 C 308.883 138.525,309.195 138.333,309.349 138.333 C 309.444 138.333,309.761 138.155,310.053 137.936 C 310.345 137.718,310.839 137.410,311.151 137.252 C 311.463 137.094,311.801 136.893,311.901 136.805 C 312.001 136.717,312.489 136.406,312.985 136.114 C 313.481 135.822,314.156 135.420,314.485 135.219 C 314.814 135.019,315.383 134.690,315.750 134.487 C 316.117 134.284,316.649 133.942,316.932 133.726 C 317.216 133.510,317.505 133.333,317.575 133.333 C 317.645 133.333,318.035 133.108,318.443 132.833 C 318.850 132.558,319.241 132.333,319.312 132.333 C 319.383 132.333,319.735 132.110,320.095 131.838 C 320.455 131.566,320.825 131.338,320.917 131.333 C 321.008 131.328,321.378 131.101,321.738 130.829 C 322.098 130.556,322.460 130.333,322.541 130.333 C 322.623 130.333,323.017 130.108,323.417 129.833 C 323.816 129.558,324.218 129.333,324.310 129.333 C 324.401 129.333,324.575 129.235,324.696 129.115 C 324.818 128.995,325.310 128.683,325.792 128.422 C 326.273 128.161,326.667 127.889,326.667 127.818 C 326.667 127.747,326.835 127.636,327.042 127.572 C 327.248 127.507,327.730 127.240,328.113 126.977 C 328.497 126.715,328.880 126.500,328.966 126.500 C 329.052 126.500,329.302 126.358,329.522 126.185 C 329.743 126.012,330.295 125.662,330.751 125.408 C 331.206 125.154,331.678 124.845,331.801 124.723 C 331.924 124.600,332.100 124.500,332.194 124.500 C 332.288 124.500,332.555 124.350,332.788 124.167 C 333.021 123.983,333.277 123.833,333.356 123.833 C 333.437 123.833,333.500 146.543,333.500 175.515 L 333.500 227.197 332.958 226.855 C 332.660 226.666,332.047 226.314,331.595 226.072 C 331.143 225.829,330.669 225.526,330.542 225.399 C 330.414 225.271,330.246 225.167,330.169 225.167 C 330.091 225.167,329.440 224.818,328.722 224.392 C 328.004 223.967,327.079 223.432,326.667 223.204 C 326.254 222.976,325.798 222.687,325.654 222.562 C 325.509 222.436,325.265 222.333,325.112 222.333 C 324.959 222.333,324.833 222.267,324.833 222.187 C 324.833 222.106,324.608 221.947,324.333 221.833 C 324.058 221.719,323.833 221.560,323.833 221.480 C 323.833 221.399,323.725 221.333,323.592 221.333 C 323.459 221.333,323.017 221.108,322.609 220.833 C 322.202 220.558,321.799 220.333,321.714 220.333 C 321.629 220.333,321.265 220.110,320.905 219.838 C 320.545 219.566,320.168 219.341,320.067 219.338 C 319.966 219.335,319.573 219.108,319.193 218.833 C 318.813 218.558,318.431 218.333,318.343 218.333 C 318.255 218.333,317.850 218.108,317.443 217.833 C 317.035 217.558,316.632 217.333,316.547 217.333 C 316.462 217.333,316.098 217.110,315.738 216.838 C 315.378 216.566,315.001 216.341,314.900 216.338 C 314.799 216.335,314.406 216.108,314.026 215.833 C 313.647 215.558,313.258 215.333,313.161 215.333 C 312.963 215.333,311.946 214.649,311.861 214.458 C 311.831 214.390,311.667 214.333,311.498 214.333 C 311.329 214.333,311.077 214.220,310.939 214.082 C 310.800 213.943,310.326 213.639,309.885 213.405 C 309.444 213.171,308.596 212.683,308.000 212.320 C 307.404 211.957,306.729 211.566,306.500 211.453 C 306.271 211.339,305.766 211.041,305.378 210.790 C 304.991 210.539,304.602 210.333,304.515 210.333 C 304.428 210.333,304.253 210.229,304.125 210.101 C 303.997 209.974,303.498 209.655,303.015 209.393 C 301.788 208.727,301.348 208.476,300.583 208.000 C 300.217 207.772,299.717 207.473,299.474 207.334 C 298.726 206.911,296.995 205.931,296.526 205.666 C 296.283 205.529,295.783 205.234,295.417 205.012 C 295.050 204.790,294.525 204.481,294.250 204.327 C 293.435 203.869,291.981 203.014,291.000 202.415 C 290.496 202.107,289.708 201.657,289.250 201.415 C 288.792 201.172,288.304 200.882,288.167 200.769 C 288.029 200.657,287.729 200.476,287.500 200.367 C 287.271 200.259,286.596 199.872,286.000 199.509 C 285.404 199.145,284.547 198.649,284.095 198.406 C 283.643 198.163,283.169 197.860,283.042 197.732 C 282.914 197.604,282.665 197.500,282.488 197.500 C 282.311 197.500,282.167 197.442,282.167 197.372 C 282.167 197.301,281.810 197.057,281.375 196.830 C 280.940 196.603,280.351 196.248,280.068 196.042 C 279.784 195.835,279.476 195.667,279.384 195.667 C 279.292 195.667,278.906 195.442,278.526 195.167 C 278.147 194.892,277.764 194.667,277.676 194.667 C 277.589 194.667,277.183 194.442,276.776 194.167 C 276.368 193.892,275.965 193.667,275.881 193.667 C 275.796 193.667,275.431 193.444,275.071 193.171 C 274.711 192.899,274.336 192.674,274.238 192.671 C 274.140 192.669,273.765 192.444,273.405 192.171 C 273.045 191.899,272.668 191.674,272.567 191.671 C 272.466 191.669,272.073 191.442,271.693 191.167 C 271.313 190.892,270.914 190.667,270.806 190.667 C 270.698 190.667,270.491 190.560,270.346 190.430 C 270.202 190.300,269.708 189.995,269.250 189.753 C 268.792 189.511,267.929 189.016,267.333 188.653 C 266.737 188.290,266.063 187.900,265.833 187.786 C 265.604 187.672,265.099 187.374,264.712 187.123 C 264.324 186.872,263.935 186.667,263.849 186.667 C 263.762 186.667,263.586 186.562,263.458 186.435 C 263.331 186.307,262.857 186.004,262.405 185.761 C 261.953 185.518,261.096 185.021,260.500 184.656 C 259.904 184.291,259.192 183.877,258.917 183.735 C 258.642 183.594,257.929 183.188,257.333 182.833 C 256.737 182.477,255.880 181.987,255.429 181.742 C 254.977 181.498,254.503 181.193,254.375 181.065 C 254.247 180.938,254.072 180.833,253.985 180.833 C 253.898 180.833,253.509 180.628,253.122 180.377 C 252.734 180.126,252.229 179.828,252.000 179.714 C 251.771 179.600,251.096 179.210,250.500 178.847 C 249.904 178.484,249.042 177.989,248.583 177.747 C 248.125 177.505,247.637 177.215,247.500 177.102 C 247.362 176.990,247.063 176.809,246.833 176.701 C 246.604 176.592,245.929 176.206,245.333 175.843 C 244.737 175.480,243.856 174.980,243.375 174.731 C 242.894 174.483,242.500 174.221,242.500 174.151 C 242.500 174.080,242.331 173.970,242.125 173.907 C 241.919 173.843,241.427 173.576,241.033 173.312 C 240.639 173.049,240.245 172.833,240.157 172.833 C 240.069 172.833,239.687 172.608,239.307 172.333 C 238.927 172.058,238.541 171.833,238.449 171.833 C 238.357 171.833,238.049 171.660,237.766 171.448 C 237.482 171.237,236.923 170.896,236.522 170.691 C 236.122 170.486,235.686 170.209,235.552 170.076 C 235.419 169.943,235.165 169.833,234.988 169.833 C 234.811 169.833,234.667 169.772,234.667 169.696 C 234.667 169.621,234.310 169.385,233.875 169.172 C 233.440 168.959,232.971 168.690,232.833 168.574 C 232.696 168.458,232.208 168.158,231.750 167.908 C 231.292 167.657,230.692 167.328,230.417 167.177 C 230.142 167.025,229.599 166.699,229.212 166.451 C 228.824 166.203,228.453 166.000,228.387 166.000 C 228.322 166.000,228.001 165.825,227.676 165.610 C 226.624 164.919,223.358 163.000,223.232 163.000 C 223.165 163.000,222.991 162.893,222.846 162.763 C 222.702 162.633,222.208 162.328,221.750 162.086 C 221.292 161.845,220.429 161.350,219.833 160.988 C 219.237 160.626,218.563 160.239,218.333 160.129 C 218.104 160.018,217.638 159.748,217.298 159.529 C 216.643 159.107,216.240 158.877,214.806 158.103 C 214.317 157.839,213.879 157.568,213.833 157.500 C 213.787 157.432,213.375 157.175,212.917 156.928 C 211.968 156.417,211.182 155.967,209.750 155.112 C 209.200 154.784,208.380 154.316,207.929 154.073 C 207.477 153.830,207.003 153.526,206.875 153.399 C 206.747 153.271,206.565 153.167,206.471 153.167 C 206.376 153.167,205.965 152.942,205.557 152.667 C 205.150 152.392,204.745 152.167,204.657 152.167 C 204.569 152.167,204.187 151.942,203.807 151.667 C 203.427 151.392,203.034 151.165,202.933 151.162 C 202.832 151.159,202.455 150.934,202.095 150.662 C 201.735 150.390,201.371 150.167,201.286 150.167 C 201.201 150.167,200.798 149.942,200.391 149.667 C 199.983 149.392,199.578 149.167,199.490 149.167 C 199.402 149.167,199.020 148.942,198.640 148.667 C 198.261 148.392,197.875 148.167,197.782 148.167 C 197.690 148.167,197.383 147.993,197.099 147.782 C 196.815 147.570,196.256 147.229,195.856 147.024 C 195.456 146.820,195.019 146.543,194.885 146.409 C 194.752 146.276,194.504 146.167,194.335 146.167 C 194.166 146.167,194.003 146.110,193.972 146.042 C 193.890 145.856,192.873 145.167,192.682 145.167 C 192.591 145.167,192.183 144.942,191.776 144.667 C 191.368 144.392,190.982 144.167,190.918 144.167 C 190.854 144.167,190.602 144.025,190.359 143.852 C 189.863 143.498,188.302 142.593,187.667 142.289 C 187.438 142.180,187.213 142.042,187.167 141.984 C 187.121 141.925,186.708 141.677,186.250 141.432 C 185.792 141.187,184.929 140.688,184.333 140.325 C 183.737 139.961,183.063 139.574,182.833 139.466 C 182.604 139.358,182.304 139.177,182.167 139.064 C 182.029 138.952,181.542 138.660,181.083 138.417 C 180.625 138.173,179.762 137.683,179.167 137.327 C 178.571 136.972,177.896 136.587,177.667 136.473 C 177.438 136.358,176.950 136.070,176.583 135.833 C 176.217 135.596,175.729 135.309,175.500 135.196 C 175.271 135.082,174.671 134.733,174.167 134.419 C 173.662 134.106,172.812 133.602,172.276 133.300 C 171.741 132.997,171.104 132.637,170.860 132.499 C 170.616 132.361,170.117 132.061,169.750 131.833 C 168.971 131.349,168.521 131.092,167.306 130.436 C 166.817 130.172,166.379 129.901,166.333 129.833 C 166.287 129.766,165.862 129.514,165.387 129.275 C 164.912 129.036,164.476 128.763,164.419 128.670 C 164.361 128.576,164.205 128.500,164.072 128.500 C 163.939 128.500,163.520 128.275,163.140 128.000 C 162.761 127.725,162.367 127.498,162.267 127.495 C 162.166 127.493,161.789 127.268,161.429 126.995 C 161.069 126.723,160.704 126.500,160.619 126.500 C 160.535 126.500,160.132 126.275,159.724 126.000 C 159.317 125.725,158.911 125.500,158.824 125.500 C 158.736 125.500,158.353 125.275,157.974 125.000 C 157.594 124.725,157.219 124.500,157.140 124.500 C 157.062 124.500,156.687 124.275,156.307 124.000 C 155.927 123.725,155.534 123.498,155.433 123.495 C 155.332 123.493,154.955 123.268,154.595 122.995 C 154.235 122.723,153.871 122.500,153.786 122.500 C 153.701 122.500,153.298 122.275,152.891 122.000 C 152.483 121.725,152.082 121.500,152.000 121.500 C 151.918 121.500,151.517 121.275,151.109 121.000 C 150.702 120.725,150.318 120.500,150.256 120.500 C 150.194 120.500,149.816 120.275,149.417 120.000 C 149.017 119.725,148.639 119.500,148.577 119.500 C 148.516 119.500,148.132 119.275,147.724 119.000 C 147.317 118.725,146.875 118.500,146.742 118.500 C 146.609 118.500,146.500 118.434,146.500 118.354 C 146.500 118.273,146.275 118.114,146.000 118.000 C 145.725 117.886,145.500 117.727,145.500 117.646 C 145.500 117.566,145.391 117.500,145.258 117.500 C 145.125 117.500,144.683 117.275,144.276 117.000 C 143.868 116.725,143.482 116.500,143.418 116.500 C 143.354 116.500,143.102 116.359,142.859 116.186 C 142.616 116.013,142.045 115.664,141.590 115.411 C 141.135 115.157,140.460 114.778,140.090 114.569 C 139.720 114.359,139.042 113.985,138.583 113.738 C 138.125 113.492,137.712 113.234,137.667 113.167 C 137.621 113.099,137.183 112.828,136.694 112.564 C 135.479 111.908,135.029 111.651,134.250 111.167 C 133.883 110.939,133.384 110.639,133.140 110.501 C 132.896 110.363,132.233 109.987,131.667 109.667 C 131.100 109.346,130.437 108.970,130.193 108.832 C 129.949 108.694,129.450 108.395,129.083 108.167 C 128.304 107.683,127.854 107.425,126.640 106.770 C 126.150 106.506,125.712 106.234,125.667 106.167 C 125.621 106.099,125.183 105.828,124.694 105.564 C 123.479 104.908,123.029 104.651,122.250 104.167 C 121.471 103.683,121.021 103.425,119.806 102.770 C 119.317 102.506,118.879 102.234,118.833 102.167 C 118.787 102.099,118.362 101.848,117.887 101.608 C 117.412 101.369,116.976 101.097,116.919 101.003 C 116.861 100.910,116.705 100.833,116.572 100.833 C 116.439 100.833,116.020 100.608,115.640 100.333 C 115.261 100.058,114.881 99.833,114.797 99.833 C 114.712 99.833,114.316 99.608,113.917 99.333 C 113.517 99.058,113.139 98.833,113.077 98.833 C 113.016 98.833,112.632 98.608,112.224 98.333 C 111.817 98.058,111.416 97.833,111.333 97.833 C 111.251 97.833,110.850 97.608,110.443 97.333 C 110.035 97.058,109.651 96.833,109.589 96.833 C 109.527 96.833,109.150 96.608,108.750 96.333 C 108.350 96.058,107.975 95.833,107.917 95.833 C 107.858 95.833,107.483 95.608,107.083 95.333 C 106.684 95.058,106.306 94.833,106.244 94.833 C 106.182 94.833,105.798 94.608,105.391 94.333 C 104.983 94.058,104.582 93.833,104.500 93.833 C 104.418 93.833,104.017 93.608,103.609 93.333 C 103.202 93.058,102.818 92.833,102.756 92.833 C 102.694 92.833,102.316 92.608,101.917 92.333 C 101.517 92.058,101.121 91.833,101.037 91.833 C 100.952 91.833,100.573 91.608,100.193 91.333 C 99.813 91.058,99.424 90.833,99.328 90.833 C 99.130 90.833,98.112 90.149,98.028 89.958 C 97.997 89.890,97.834 89.833,97.665 89.833 C 97.496 89.833,97.244 89.720,97.105 89.582 C 96.967 89.443,96.470 89.124,96.001 88.873 C 94.758 88.207,94.328 87.963,93.583 87.500 C 92.804 87.016,92.354 86.758,91.140 86.103 C 90.650 85.839,90.212 85.568,90.167 85.500 C 90.121 85.432,89.683 85.161,89.194 84.897 C 87.979 84.242,87.529 83.984,86.750 83.500 C 86.383 83.272,85.884 82.973,85.640 82.834 C 85.396 82.696,84.733 82.321,84.167 82.000 C 83.600 81.679,82.937 81.304,82.693 81.166 C 82.449 81.027,81.950 80.728,81.583 80.500 C 80.804 80.016,80.354 79.758,79.140 79.103 C 78.650 78.839,78.212 78.568,78.167 78.500 C 78.121 78.432,77.683 78.161,77.194 77.897 C 76.027 77.267,75.555 77.000,74.750 76.512 C 74.080 76.106,73.885 75.995,72.128 75.012 C 71.603 74.719,71.130 74.408,71.077 74.323 C 71.024 74.237,70.835 74.167,70.657 74.167 C 70.479 74.167,70.333 74.101,70.333 74.020 C 70.333 73.940,70.108 73.781,69.833 73.667 C 69.558 73.553,69.333 73.394,69.333 73.313 C 69.333 73.233,69.225 73.167,69.092 73.167 C 68.959 73.167,68.517 72.942,68.109 72.667 C 67.702 72.392,67.318 72.167,67.256 72.167 C 67.194 72.167,66.816 71.942,66.417 71.667 C 66.017 71.392,65.639 71.167,65.577 71.167 C 65.516 71.167,65.132 70.942,64.724 70.667 C 64.317 70.392,63.916 70.167,63.833 70.167 C 63.751 70.167,63.350 69.942,62.943 69.667 C 62.535 69.392,62.132 69.167,62.047 69.167 C 61.962 69.167,61.598 68.944,61.238 68.671 C 60.878 68.399,60.501 68.174,60.400 68.171 C 60.299 68.169,59.906 67.942,59.526 67.667 C 59.147 67.392,58.753 67.167,58.650 67.167 C 58.548 67.167,58.181 66.942,57.833 66.667 C 57.486 66.392,57.123 66.167,57.026 66.167 C 56.929 66.167,56.517 65.942,56.109 65.667 C 55.702 65.392,55.299 65.167,55.214 65.167 C 55.129 65.167,54.765 64.944,54.405 64.671 C 54.045 64.399,53.668 64.174,53.567 64.171 C 53.466 64.169,53.073 63.942,52.693 63.667 C 52.313 63.392,51.931 63.167,51.843 63.167 C 51.755 63.167,51.350 62.942,50.943 62.667 C 50.535 62.392,50.124 62.167,50.029 62.167 C 49.935 62.167,49.753 62.063,49.626 61.936 C 49.500 61.809,49.063 61.536,48.656 61.330 C 48.249 61.123,47.738 60.814,47.519 60.644 C 46.990 60.230,46.666 60.252,45.933 60.750 " stroke="none" fill="#040404" fill-rule="evenodd"></path></g></svg>